<?xml version="1.0" encoding="UTF-8"?>
<svg width="210mm" height="297mm" version="1.1" viewBox="0 0 210 297" xmlns="http://www.w3.org/2000/svg">
 <path transform="scale(.26458)" d="m488.3 56.926c-13.537 0-27.073 5.1628-37.4 15.49l-86.252 86.254c-20.486 20.486-20.63 53.586-0.47851 74.277l-142.8 61.248-160.65 68.9-205.83 613.6c-1.4903 4.4387-2.3162 8.9899-2.5176 13.529-0.14902 3.4035 0.0518 6.8016 0.59961 10.137 1.0916 6.6741 3.546 13.104 7.2637 18.856 0.6203 0.9586 1.2721 1.8959 1.9648 2.8183 1.0002 1.3336 2.1004 2.6072 3.2461 3.8496l314.61-314.61a144.45 144.45 0 0 1-14.994-63.979 144.45 144.45 0 0 1 144.45-144.45 144.45 144.45 0 0 1 144.46 144.45 144.45 144.45 0 0 1-144.46 144.45 144.45 144.45 0 0 1-65.406-15.748l-314.32 314.32 1.0547 1.0547c1.0513 1.0512 2.1554 2.0262 3.2832 2.9687 0.31015 0.2578 0.62332 0.5081 0.9375 0.7578 0.94249 0.7492 1.9095 1.462 2.9004 2.1387 0.23354 0.1572 0.45569 0.3252 0.69336 0.4824 1.2043 0.7895 2.4366 1.5186 3.6973 2.1992 0.30198 0.161 0.60987 0.3102 0.91602 0.4629 1.0271 0.5236 2.0637 1.0157 3.123 1.4668 0.33846 0.1452 0.67716 0.2948 1.0195 0.4317 1.3211 0.5317 2.664 1.0149 4.0254 1.4257 0.18527 0.0564 0.37516 0.0965 0.56445 0.1524 1.2003 0.3503 2.4162 0.6486 3.6406 0.9023 0.3828 0.0805 0.7696 0.1564 1.1562 0.2285 1.2527 0.2336 2.5126 0.4238 3.7773 0.5567 0.16921 0.0151 0.33289 0.0482 0.49805 0.0644 1.4178 0.1369 2.8435 0.1969 4.2734 0.209 0.14906 1e-4 0.29624 0.0196 0.44531 0.0196 0.29813 1e-4 0.60026-0.0353 0.90234-0.0391 0.77738-0.0151 1.5488-0.0434 2.3262-0.0918 0.49148-0.034 0.97932-0.073 1.4707-0.1172 0.77737-0.0726 1.5509-0.1724 2.3242-0.2812 0.47524-0.0685 0.95051-0.1345 1.4258-0.2188 0.82973-0.1451 1.6567-0.3225 2.4824-0.5117 0.41074-0.0926 0.81572-0.1707 1.2266-0.2754 1.2124-0.3061 2.4209-0.6558 3.6172-1.0586 0.013228-0.0027 0.030433-0.0079 0.041015-0.0117l457.64-154.68 154.68-52.277 130.13-303.42 0.70703 0.70899c20.655 20.655 54.144 20.659 74.799 0.0039l86.26-86.26c20.639-20.65 20.639-54.144-0.01563-74.799l-0.0039-0.00391-360.11-360.11c-10.327-10.327-23.864-15.49-37.4-15.49z" fill="#747474" stroke-width="4.0278"/>
</svg>
