<svg xmlns="http://www.w3.org/2000/svg" fill="none" viewBox="0 0 304 192"><path fill="#DFEAFE" d="M128 48c26.51 0 48 21.49 48 48s-21.49 48-48 48-48-21.49-48-48 21.49-48 48-48Zm-7.265 66.512c-.252-.683-1.218-.683-1.47 0l-1.159 3.132a.781.781 0 0 1-.462.462l-3.132 1.159c-.683.252-.683 1.218 0 1.47l3.132 1.159a.781.781 0 0 1 .462.462l1.159 3.132c.252.683 1.218.683 1.47 0l1.159-3.132a.781.781 0 0 1 .462-.462l3.132-1.159c.683-.252.683-1.218 0-1.47l-3.132-1.159a.781.781 0 0 1-.462-.462l-1.159-3.132Z"></path><path stroke="#7097FF" stroke-width=".6" d="M56.698 40.786c-.225-.608-1.044-.645-1.343-.113l-.053.113-1.545 4.176c-.12.322-.357.584-.661.736l-.134.059-4.176 1.545c-.608.225-.645 1.044-.113 1.343l.113.053 4.176 1.545c.322.12.584.357.736.661l.059.134 1.545 4.176c.225.608 1.044.645 1.343.113l.053-.113 1.545-4.176c.12-.322.357-.584.661-.736l.134-.059 4.176-1.545c.608-.225.645-1.044.113-1.343l-.113-.053-4.176-1.545a1.345 1.345 0 0 1-.736-.661l-.059-.134-1.545-4.176Z"></path><path fill="#2E52B4" d="M232.477 108.332a.509.509 0 0 0-.954 0l-.781 2.11a.505.505 0 0 1-.3.3l-2.11.781a.509.509 0 0 0 0 .954l2.11.781a.505.505 0 0 1 .3.3l.781 2.11c.164.443.79.443.954 0l.781-2.11a.505.505 0 0 1 .3-.3l2.11-.781a.509.509 0 0 0 0-.954l-2.11-.781a.505.505 0 0 1-.3-.3l-.781-2.11Z"></path><g filter="url(#a)"><path fill="url(#b)" d="M160 100c0-11.046 8.954-20 20-20h16v40c0 19.882-16.118 36-36 36v-56Z"></path><path fill="#fff" fill-opacity=".4" d="M183.747 147.057A54.492 54.492 0 0 0 186 131.5c0-17.866-8.596-33.723-21.878-43.663A19.915 19.915 0 0 0 160 100v56a35.862 35.862 0 0 0 23.747-8.943Z"></path></g><g fill="#C1D5FF"><rect width="76.403" height="5" x="115.544" y="85.025" rx="2.5" transform="rotate(-45 115.544 85.025)"></rect><rect width="185" height="8" x="62" y="96.882" rx="4" transform="rotate(-15 62 96.882)"></rect></g><g fill="#C1D5FF"><path d="M152 48c-13.255 0-24-10.745-24-24 13.255 0 24 10.745 24 24ZM240 96c-17.673 0-32-14.327-32-32 17.673 0 32 14.327 32 32Z"></path></g><path stroke="#2E52B4" d="M178.5 71v9"></path><defs><linearGradient id="b" x1="160" x2="219.047" y1="80" y2="108.884" gradientUnits="userSpaceOnUse"><stop stop-color="#A4BCFF"></stop><stop offset="1" stop-color="#648EFF"></stop></linearGradient><filter id="a" width="67.1" height="104.425" x="157.994" y="77.659" color-interpolation-filters="sRGB" filterUnits="userSpaceOnUse"><feFlood flood-opacity="0" result="BackgroundImageFix"></feFlood><feColorMatrix in="SourceAlpha" result="hardAlpha" values="0 0 0 0 0 0 0 0 0 0 0 0 0 0 0 0 0 0 127 0"></feColorMatrix><feOffset dx="1.338" dy="1.003"></feOffset><feGaussianBlur stdDeviation="1.672"></feGaussianBlur><feColorMatrix values="0 0 0 0 0 0 0 0 0 0 0 0 0 0 0 0 0 0 0.25 0"></feColorMatrix><feBlend in2="BackgroundImageFix" result="effect1_dropShadow_2984_41083"></feBlend><feColorMatrix in="SourceAlpha" result="hardAlpha" values="0 0 0 0 0 0 0 0 0 0 0 0 0 0 0 0 0 0 127 0"></feColorMatrix><feOffset dx="4.682" dy="4.013"></feOffset><feGaussianBlur stdDeviation="3.01"></feGaussianBlur><feColorMatrix values="0 0 0 0 0 0 0 0 0 0 0 0 0 0 0 0 0 0 0.21 0"></feColorMatrix><feBlend in2="effect1_dropShadow_2984_41083" result="effect2_dropShadow_2984_41083"></feBlend><feColorMatrix in="SourceAlpha" result="hardAlpha" values="0 0 0 0 0 0 0 0 0 0 0 0 0 0 0 0 0 0 127 0"></feColorMatrix><feOffset dx="10.701" dy="9.029"></feOffset><feGaussianBlur stdDeviation="4.18"></feGaussianBlur><feColorMatrix values="0 0 0 0 0 0 0 0 0 0 0 0 0 0 0 0 0 0 0.13 0"></feColorMatrix><feBlend in2="effect2_dropShadow_2984_41083" result="effect3_dropShadow_2984_41083"></feBlend><feColorMatrix in="SourceAlpha" result="hardAlpha" values="0 0 0 0 0 0 0 0 0 0 0 0 0 0 0 0 0 0 127 0"></feColorMatrix><feOffset dx="19.061" dy="16.052"></feOffset><feGaussianBlur stdDeviation="5.016"></feGaussianBlur><feColorMatrix values="0 0 0 0 0 0 0 0 0 0 0 0 0 0 0 0 0 0 0.04 0"></feColorMatrix><feBlend in2="effect3_dropShadow_2984_41083" result="effect4_dropShadow_2984_41083"></feBlend><feBlend in="SourceGraphic" in2="effect4_dropShadow_2984_41083" result="shape"></feBlend><feColorMatrix in="SourceAlpha" result="hardAlpha" values="0 0 0 0 0 0 0 0 0 0 0 0 0 0 0 0 0 0 127 0"></feColorMatrix><feOffset dx="-1.003" dy="-1.003"></feOffset><feGaussianBlur stdDeviation=".502"></feGaussianBlur><feComposite in2="hardAlpha" k2="-1" k3="1" operator="arithmetic"></feComposite><feColorMatrix values="0 0 0 0 0 0 0 0 0 0 0 0 0 0 0 0 0 0 0.3 0"></feColorMatrix><feBlend in2="shape" result="effect5_innerShadow_2984_41083"></feBlend><feColorMatrix in="SourceAlpha" result="hardAlpha" values="0 0 0 0 0 0 0 0 0 0 0 0 0 0 0 0 0 0 127 0"></feColorMatrix><feOffset dx="1.003" dy="1.003"></feOffset><feGaussianBlur stdDeviation=".502"></feGaussianBlur><feComposite in2="hardAlpha" k2="-1" k3="1" operator="arithmetic"></feComposite><feColorMatrix values="0 0 0 0 1 0 0 0 0 1 0 0 0 0 1 0 0 0 0.4 0"></feColorMatrix><feBlend in2="effect5_innerShadow_2984_41083" result="effect6_innerShadow_2984_41083"></feBlend></filter></defs></svg>