<svg xmlns="http://www.w3.org/2000/svg" fill="none" viewBox="0 0 304 192"><path fill="#DFEAFE" d="M152 24c22.091 0 40 17.909 40 40v32c0 22.091-17.909 40-40 40s-40-17.909-40-40V64c0-22.091 17.909-40 40-40Zm-19.523 32.332a.509.509 0 0 0-.954 0l-.781 2.11a.507.507 0 0 1-.3.3l-2.11.781a.508.508 0 0 0 0 .954l2.11.78c.139.052.249.162.3.3l.781 2.111c.164.443.79.443.954 0l.781-2.11a.507.507 0 0 1 .3-.3l2.11-.781a.508.508 0 0 0 0-.954l-2.11-.78a.507.507 0 0 1-.3-.3l-.781-2.111Z"></path><path stroke="#7097FF" stroke-width=".6" d="M96.698 32.786c-.225-.608-1.044-.645-1.343-.113l-.053.113-1.545 4.176c-.12.322-.357.584-.661.736l-.134.059-4.176 1.545c-.608.225-.645 1.044-.113 1.343l.113.053 4.176 1.545c.322.12.584.357.736.661l.059.134 1.545 4.176c.225.608 1.044.645 1.343.113l.053-.113 1.545-4.176c.12-.322.357-.584.661-.736l.134-.059 4.176-1.545c.608-.225.645-1.044.113-1.343l-.113-.053-4.176-1.545a1.345 1.345 0 0 1-.736-.661l-.059-.134-1.545-4.176Z"></path><path fill="#2E52B4" d="M87.265 82.512c.252-.683 1.218-.683 1.47 0l1.159 3.131c.08.215.248.384.463.463l3.131 1.159c.683.252.683 1.218 0 1.47l-3.131 1.159a.784.784 0 0 0-.463.463l-1.159 3.131c-.252.683-1.218.683-1.47 0l-1.159-3.131a.784.784 0 0 0-.463-.463l-3.131-1.159c-.683-.252-.683-1.218 0-1.47l3.131-1.159a.784.784 0 0 0 .463-.463l1.159-3.131Z"></path><g fill="#DFEAFE"><path d="M104 152h96v8h-96v-8ZM108 160h88l-1.76 8h-84.48l-1.76-8Z"></path></g><path stroke="#2E52B4" stroke-width="1.056" d="M151.472 88V72"></path><g fill-rule="evenodd" clip-rule="evenodd"><g fill="#C1D5FF"><path d="M215 32h2v1h-2v-1Zm4 0h2v1h-2v-1Zm4 0h2v1h-2v-1Zm4 0h2v1h-2v-1Zm4 0h1c.347 0 .69.017 1.029.05l-.097.995A9.615 9.615 0 0 0 232 33h-1v-1Zm4.049.45c.664.2 1.301.466 1.902.788l-.472.882a9.456 9.456 0 0 0-1.72-.713l.29-.957Zm3.612 1.933c.532.437 1.019.924 1.456 1.456l-.773.634a9.545 9.545 0 0 0-1.317-1.317l.634-.773Zm2.601 3.166c.322.601.587 1.238.788 1.902l-.957.29a9.394 9.394 0 0 0-.713-1.72l.882-.472Zm1.188 3.922a10.61 10.61 0 0 1 0 2.058l-.995-.097a9.566 9.566 0 0 0 0-1.864l.995-.097Zm-.4 4.078c-.201.664-.466 1.3-.788 1.902l-.882-.472c.292-.544.531-1.12.713-1.72l.957.29Zm-1.933 3.612a10.545 10.545 0 0 1-1.456 1.456l-.634-.773a9.545 9.545 0 0 0 1.317-1.317l.773.634Zm-3.166 2.6c-.601.323-1.238.588-1.902.79l-.29-.958a9.456 9.456 0 0 0 1.72-.713l.472.882Zm-3.922 1.19c-.339.032-.682.049-1.029.049h-.984v-1H232c.315 0 .626-.015.932-.045l.097.995Zm-39.42.049h-1.968v-1h1.968v1Zm3.938 0h-1.969v-1h1.969v1Zm3.937 0h-1.968v-1h1.968v1Zm3.938 0h-1.969v-1h1.969v1Zm3.937 0h-1.968v-1h1.968v1Zm3.938 0h-1.969v-1h1.969v1Zm3.937 0h-1.968v-1h1.968v1Zm3.938 0h-1.969v-1h1.969v1Zm3.937 0h-1.968v-1h1.968v1Zm3.938 0h-1.969v-1h1.969v1ZM229.112 33.095a6.522 6.522 0 0 1 1.793 1.793l-.831.556a5.536 5.536 0 0 0-1.518-1.518l.556-.831Zm2.764 4.137c.082.41.124.834.124 1.268 0 .433-.042.857-.124 1.268l-.981-.194a5.5 5.5 0 0 0 0-2.148l.981-.194Zm-.971 4.88a6.522 6.522 0 0 1-1.793 1.792l-.556-.83a5.536 5.536 0 0 0 1.518-1.519l.831.556Zm-4.137 2.764c-.41.081-.834.124-1.268.124h-1.027v-1h1.027c.368 0 .727-.036 1.074-.105l.194.98ZM189.563 45h-2.054v-1h2.054v1Zm4.107 0h-2.054v-1h2.054v1Zm4.107 0h-2.053v-1h2.053v1Zm4.107 0h-2.053v-1h2.053v1Zm4.107 0h-2.053v-1h2.053v1Zm4.107 0h-2.053v-1h2.053v1Zm4.108 0h-2.054v-1h2.054v1Zm4.107 0h-2.054v-1h2.054v1Zm4.107 0h-2.054v-1h2.054v1Z"></path></g><g fill="#7097FF"><path d="M169 53c-.352 0-.701.011-1.048.034l-.064-.998c.368-.024.738-.036 1.112-.036h.985v1H169Zm4.922 0h-1.969v-1h1.969v1Zm3.938 0h-1.969v-1h1.969v1Zm3.937 0h-1.969v-1h1.969v1Zm3.938 0h-1.969v-1h1.969v1Zm3.937 0h-1.969v-1h1.969v1Zm-23.795.305a15.9 15.9 0 0 0-2.022.54l-.321-.947c.697-.237 1.414-.43 2.149-.574l.194.98Zm-3.955 1.342c-.628.31-1.233.66-1.811 1.048l-.557-.831a17.088 17.088 0 0 1 1.925-1.114l.443.897Zm-3.471 2.323c-.525.461-1.02.956-1.481 1.48l-.751-.66a17.003 17.003 0 0 1 1.572-1.571l.66.751Zm-2.756 3.14a15.959 15.959 0 0 0-1.048 1.812l-.897-.443c.33-.667.702-1.31 1.114-1.925l.831.556Zm-1.85 3.745c-.222.656-.404 1.33-.54 2.022l-.981-.194c.145-.735.338-1.452.574-2.15l.947.322ZM168 45c-.33 0-.657.01-.982.032l-.065-.998c.347-.023.696-.034 1.047-.034h1.027v1H168Zm5.134 0h-2.053v-1h2.053v1Zm4.107 0h-2.053v-1h2.053v1Zm4.107 0h-2.053v-1h2.053v1Zm4.108 0h-2.054v-1h2.054v1Zm-20.384.285c-.648.129-1.28.299-1.895.507l-.322-.947a15.945 15.945 0 0 1 2.023-.54l.194.98Zm-3.707 1.259c-.589.29-1.156.62-1.699.982l-.556-.83a15.906 15.906 0 0 1 1.812-1.049l.443.897Zm-3.255 2.178c-.492.432-.956.896-1.388 1.388l-.751-.66c.46-.524.955-1.019 1.479-1.48l.66.752Zm-2.584 2.944c-.363.543-.691 1.11-.982 1.699l-.897-.443c.311-.629.661-1.234 1.048-1.812l.831.556Zm-1.734 3.51a14.973 14.973 0 0 0-.506 1.896l-.981-.194c.136-.691.318-1.366.54-2.023l.947.322Zm-.76 3.842A62.126 62.126 0 0 0 153 61h-1c0-.352.011-1.7.034-2.047l.998.065Z"></path></g></g><g filter="url(#a)"><path fill="url(#b)" d="M140 78.775a2 2 0 0 1 2.632-1.898l19.317 6.44A3 3 0 0 1 164 86.161V152h-24V78.775Z"></path><path fill="#fff" fill-opacity=".4" d="M140 78.775a2 2 0 0 1 2.632-1.898l19.317 6.44A3 3 0 0 1 164 86.161V100l-24-16v-5.225Z"></path></g><defs><linearGradient id="b" x1="140" x2="184.095" y1="76" y2="90.38" gradientUnits="userSpaceOnUse"><stop stop-color="#A4BCFF"></stop><stop offset="1" stop-color="#648EFF"></stop></linearGradient><filter id="a" width="55.1" height="103.651" x="137.994" y="74.433" color-interpolation-filters="sRGB" filterUnits="userSpaceOnUse"><feFlood flood-opacity="0" result="BackgroundImageFix"></feFlood><feColorMatrix in="SourceAlpha" result="hardAlpha" values="0 0 0 0 0 0 0 0 0 0 0 0 0 0 0 0 0 0 127 0"></feColorMatrix><feOffset dx="1.338" dy="1.003"></feOffset><feGaussianBlur stdDeviation="1.672"></feGaussianBlur><feColorMatrix values="0 0 0 0 0 0 0 0 0 0 0 0 0 0 0 0 0 0 0.25 0"></feColorMatrix><feBlend in2="BackgroundImageFix" result="effect1_dropShadow_3031_10406"></feBlend><feColorMatrix in="SourceAlpha" result="hardAlpha" values="0 0 0 0 0 0 0 0 0 0 0 0 0 0 0 0 0 0 127 0"></feColorMatrix><feOffset dx="4.682" dy="4.013"></feOffset><feGaussianBlur stdDeviation="3.01"></feGaussianBlur><feColorMatrix values="0 0 0 0 0 0 0 0 0 0 0 0 0 0 0 0 0 0 0.21 0"></feColorMatrix><feBlend in2="effect1_dropShadow_3031_10406" result="effect2_dropShadow_3031_10406"></feBlend><feColorMatrix in="SourceAlpha" result="hardAlpha" values="0 0 0 0 0 0 0 0 0 0 0 0 0 0 0 0 0 0 127 0"></feColorMatrix><feOffset dx="10.701" dy="9.029"></feOffset><feGaussianBlur stdDeviation="4.18"></feGaussianBlur><feColorMatrix values="0 0 0 0 0 0 0 0 0 0 0 0 0 0 0 0 0 0 0.13 0"></feColorMatrix><feBlend in2="effect2_dropShadow_3031_10406" result="effect3_dropShadow_3031_10406"></feBlend><feColorMatrix in="SourceAlpha" result="hardAlpha" values="0 0 0 0 0 0 0 0 0 0 0 0 0 0 0 0 0 0 127 0"></feColorMatrix><feOffset dx="19.061" dy="16.052"></feOffset><feGaussianBlur stdDeviation="5.016"></feGaussianBlur><feColorMatrix values="0 0 0 0 0 0 0 0 0 0 0 0 0 0 0 0 0 0 0.04 0"></feColorMatrix><feBlend in2="effect3_dropShadow_3031_10406" result="effect4_dropShadow_3031_10406"></feBlend><feBlend in="SourceGraphic" in2="effect4_dropShadow_3031_10406" result="shape"></feBlend><feColorMatrix in="SourceAlpha" result="hardAlpha" values="0 0 0 0 0 0 0 0 0 0 0 0 0 0 0 0 0 0 127 0"></feColorMatrix><feOffset dx="-1.003" dy="-1.003"></feOffset><feGaussianBlur stdDeviation=".502"></feGaussianBlur><feComposite in2="hardAlpha" k2="-1" k3="1" operator="arithmetic"></feComposite><feColorMatrix values="0 0 0 0 0 0 0 0 0 0 0 0 0 0 0 0 0 0 0.3 0"></feColorMatrix><feBlend in2="shape" result="effect5_innerShadow_3031_10406"></feBlend><feColorMatrix in="SourceAlpha" result="hardAlpha" values="0 0 0 0 0 0 0 0 0 0 0 0 0 0 0 0 0 0 127 0"></feColorMatrix><feOffset dx="1.003" dy="1.003"></feOffset><feGaussianBlur stdDeviation=".502"></feGaussianBlur><feComposite in2="hardAlpha" k2="-1" k3="1" operator="arithmetic"></feComposite><feColorMatrix values="0 0 0 0 1 0 0 0 0 1 0 0 0 0 1 0 0 0 0.4 0"></feColorMatrix><feBlend in2="effect5_innerShadow_3031_10406" result="effect6_innerShadow_3031_10406"></feBlend></filter></defs></svg>