<svg xmlns="http://www.w3.org/2000/svg" fill="none" viewBox="0 0 304 192"><path fill="#DFEAFE" d="M138 24c27.614 0 50 21.473 50 47.96V168H88V71.96C88 45.473 110.386 24 138 24Zm-25.021 112.683c-.336-.91-1.622-.91-1.958 0l-1.546 4.174a1.048 1.048 0 0 1-.618.618l-4.174 1.546c-.91.336-.91 1.622 0 1.958l4.174 1.546c.286.106.512.332.618.618l1.546 4.174c.336.91 1.622.91 1.958 0l1.546-4.174c.106-.286.332-.512.618-.618l4.174-1.546c.91-.336.91-1.622 0-1.958l-4.174-1.546a1.048 1.048 0 0 1-.618-.618l-1.546-4.174Z"></path><path stroke="#7097FF" stroke-width=".6" d="M88.698 80.786c-.225-.608-1.044-.645-1.343-.113l-.053.113-1.545 4.176c-.12.322-.357.584-.661.736l-.134.059-4.176 1.545c-.608.225-.645 1.044-.113 1.343l.113.053 4.176 1.545c.322.12.584.357.736.661l.059.134 1.545 4.176c.225.608 1.044.645 1.343.113l.053-.113 1.545-4.176c.12-.322.357-.584.661-.736l.134-.059 4.176-1.545c.608-.225.645-1.044.113-1.343l-.113-.053-4.176-1.545a1.345 1.345 0 0 1-.736-.661l-.059-.134-1.545-4.176Z"></path><path fill="#2E52B4" d="M132.477 48.332a.509.509 0 0 0-.954 0l-.781 2.11a.507.507 0 0 1-.3.3l-2.11.781a.508.508 0 0 0 0 .954l2.11.78a.507.507 0 0 1 .3.3l.781 2.111c.164.443.79.443.954 0l.781-2.11a.507.507 0 0 1 .3-.3l2.11-.781a.508.508 0 0 0 0-.954l-2.11-.78a.507.507 0 0 1-.3-.3l-.781-2.111Z"></path><path stroke="#2E52B4" d="M154.5 80V69.5c0-14.054 11.693-25.5 25.5-25.5s25.5 11.446 25.5 25.5V80"></path><g filter="url(#a)"><path fill="url(#b)" d="M180 152c19.882 0 36-15.757 36-35.192V80h-72v36.808C144 136.243 160.118 152 180 152Z"></path></g><g fill="#fff" fill-opacity=".4"><circle cx="180.143" cy="102.857" r="6.857"></circle><path d="m180.143 109.714 9.143 22.857H171l9.143-22.857Z"></path></g><defs><linearGradient id="b" x1="149.062" x2="195.367" y1="84.703" y2="139.395" gradientUnits="userSpaceOnUse"><stop stop-color="#A4C1FF"></stop><stop offset="1" stop-color="#648EFF"></stop></linearGradient><filter id="a" width="103.1" height="100.425" x="141.994" y="77.659" color-interpolation-filters="sRGB" filterUnits="userSpaceOnUse"><feFlood flood-opacity="0" result="BackgroundImageFix"></feFlood><feColorMatrix in="SourceAlpha" result="hardAlpha" values="0 0 0 0 0 0 0 0 0 0 0 0 0 0 0 0 0 0 127 0"></feColorMatrix><feOffset dx="1.338" dy="1.003"></feOffset><feGaussianBlur stdDeviation="1.672"></feGaussianBlur><feColorMatrix values="0 0 0 0 0 0 0 0 0 0 0 0 0 0 0 0 0 0 0.25 0"></feColorMatrix><feBlend in2="BackgroundImageFix" result="effect1_dropShadow_2050_1215"></feBlend><feColorMatrix in="SourceAlpha" result="hardAlpha" values="0 0 0 0 0 0 0 0 0 0 0 0 0 0 0 0 0 0 127 0"></feColorMatrix><feOffset dx="4.682" dy="4.013"></feOffset><feGaussianBlur stdDeviation="3.01"></feGaussianBlur><feColorMatrix values="0 0 0 0 0 0 0 0 0 0 0 0 0 0 0 0 0 0 0.21 0"></feColorMatrix><feBlend in2="effect1_dropShadow_2050_1215" result="effect2_dropShadow_2050_1215"></feBlend><feColorMatrix in="SourceAlpha" result="hardAlpha" values="0 0 0 0 0 0 0 0 0 0 0 0 0 0 0 0 0 0 127 0"></feColorMatrix><feOffset dx="10.701" dy="9.029"></feOffset><feGaussianBlur stdDeviation="4.18"></feGaussianBlur><feColorMatrix values="0 0 0 0 0 0 0 0 0 0 0 0 0 0 0 0 0 0 0.13 0"></feColorMatrix><feBlend in2="effect2_dropShadow_2050_1215" result="effect3_dropShadow_2050_1215"></feBlend><feColorMatrix in="SourceAlpha" result="hardAlpha" values="0 0 0 0 0 0 0 0 0 0 0 0 0 0 0 0 0 0 127 0"></feColorMatrix><feOffset dx="19.061" dy="16.052"></feOffset><feGaussianBlur stdDeviation="5.016"></feGaussianBlur><feColorMatrix values="0 0 0 0 0 0 0 0 0 0 0 0 0 0 0 0 0 0 0.04 0"></feColorMatrix><feBlend in2="effect3_dropShadow_2050_1215" result="effect4_dropShadow_2050_1215"></feBlend><feBlend in="SourceGraphic" in2="effect4_dropShadow_2050_1215" result="shape"></feBlend><feColorMatrix in="SourceAlpha" result="hardAlpha" values="0 0 0 0 0 0 0 0 0 0 0 0 0 0 0 0 0 0 127 0"></feColorMatrix><feOffset dx="-1.003" dy="-1.003"></feOffset><feGaussianBlur stdDeviation=".502"></feGaussianBlur><feComposite in2="hardAlpha" k2="-1" k3="1" operator="arithmetic"></feComposite><feColorMatrix values="0 0 0 0 0 0 0 0 0 0 0 0 0 0 0 0 0 0 0.3 0"></feColorMatrix><feBlend in2="shape" result="effect5_innerShadow_2050_1215"></feBlend><feColorMatrix in="SourceAlpha" result="hardAlpha" values="0 0 0 0 0 0 0 0 0 0 0 0 0 0 0 0 0 0 127 0"></feColorMatrix><feOffset dx="1.003" dy="1.003"></feOffset><feGaussianBlur stdDeviation=".502"></feGaussianBlur><feComposite in2="hardAlpha" k2="-1" k3="1" operator="arithmetic"></feComposite><feColorMatrix values="0 0 0 0 1 0 0 0 0 1 0 0 0 0 1 0 0 0 0.4 0"></feColorMatrix><feBlend in2="effect5_innerShadow_2050_1215" result="effect6_innerShadow_2050_1215"></feBlend></filter></defs></svg>