<svg xmlns="http://www.w3.org/2000/svg" fill="none" viewBox="0 0 304 192"><path fill="#DFEAFE" d="M128 24c26.51 0 48 21.49 48 48v96H96V24h32Zm-11.021 96.683c-.336-.91-1.622-.91-1.958 0l-1.546 4.174a1.048 1.048 0 0 1-.618.618l-4.174 1.546c-.91.336-.91 1.622 0 1.958l4.174 1.546c.286.106.512.332.618.618l1.546 4.174c.336.91 1.622.91 1.958 0l1.546-4.174c.106-.286.332-.512.618-.618l4.174-1.546c.91-.336.91-1.622 0-1.958l-4.174-1.546a1.048 1.048 0 0 1-.618-.618l-1.546-4.174Z"></path><path stroke="#7097FF" stroke-width=".6" d="M64.698 64.786c-.225-.608-1.044-.645-1.343-.113l-.053.113-1.545 4.176c-.12.322-.357.584-.661.736l-.134.059-4.176 1.545c-.608.225-.645 1.044-.113 1.343l.113.053 4.176 1.545c.322.12.584.357.736.661l.059.134 1.545 4.176c.225.608 1.044.645 1.343.113l.053-.113 1.545-4.176c.12-.322.357-.584.661-.736l.134-.059 4.176-1.545c.608-.225.645-1.044.113-1.343l-.113-.053-4.176-1.545a1.345 1.345 0 0 1-.736-.661l-.059-.134-1.545-4.176Z"></path><path fill="#2E52B4" d="M220.477 40.332a.509.509 0 0 0-.954 0l-.781 2.11a.507.507 0 0 1-.3.3l-2.11.781a.508.508 0 0 0 0 .954l2.11.78a.507.507 0 0 1 .3.3l.781 2.111c.164.443.79.443.954 0l.781-2.11a.507.507 0 0 1 .3-.3l2.11-.781a.508.508 0 0 0 0-.954l-2.11-.78a.507.507 0 0 1-.3-.3l-.781-2.111Z"></path><g filter="url(#a)"><path fill="url(#b)" d="M144 80h72v72h-72z"></path></g><path stroke="#2E52B4" d="M159 80V69.45C159 59.26 167.059 51 177 51s18 8.26 18 18.45V80"></path><path stroke="#2E52B4" d="M165 80V69.45C165 59.26 173.059 51 183 51s18 8.26 18 18.45V80"></path><path fill="#fff" fill-opacity=".4" d="M165.5 94.58V80h-1v14.58L159 101v16h12v-16l-5.5-6.42Z"></path><defs><linearGradient id="b" x1="144" x2="214.824" y1="80" y2="153.138" gradientUnits="userSpaceOnUse"><stop stop-color="#A4BCFF"></stop><stop offset="1" stop-color="#648EFF"></stop></linearGradient><filter id="a" width="103.1" height="100.425" x="141.994" y="77.659" color-interpolation-filters="sRGB" filterUnits="userSpaceOnUse"><feFlood flood-opacity="0" result="BackgroundImageFix"></feFlood><feColorMatrix in="SourceAlpha" result="hardAlpha" values="0 0 0 0 0 0 0 0 0 0 0 0 0 0 0 0 0 0 127 0"></feColorMatrix><feOffset dx="1.338" dy="1.003"></feOffset><feGaussianBlur stdDeviation="1.672"></feGaussianBlur><feColorMatrix values="0 0 0 0 0 0 0 0 0 0 0 0 0 0 0 0 0 0 0.25 0"></feColorMatrix><feBlend in2="BackgroundImageFix" result="effect1_dropShadow_2659_7125"></feBlend><feColorMatrix in="SourceAlpha" result="hardAlpha" values="0 0 0 0 0 0 0 0 0 0 0 0 0 0 0 0 0 0 127 0"></feColorMatrix><feOffset dx="4.682" dy="4.013"></feOffset><feGaussianBlur stdDeviation="3.01"></feGaussianBlur><feColorMatrix values="0 0 0 0 0 0 0 0 0 0 0 0 0 0 0 0 0 0 0.21 0"></feColorMatrix><feBlend in2="effect1_dropShadow_2659_7125" result="effect2_dropShadow_2659_7125"></feBlend><feColorMatrix in="SourceAlpha" result="hardAlpha" values="0 0 0 0 0 0 0 0 0 0 0 0 0 0 0 0 0 0 127 0"></feColorMatrix><feOffset dx="10.701" dy="9.029"></feOffset><feGaussianBlur stdDeviation="4.18"></feGaussianBlur><feColorMatrix values="0 0 0 0 0 0 0 0 0 0 0 0 0 0 0 0 0 0 0.13 0"></feColorMatrix><feBlend in2="effect2_dropShadow_2659_7125" result="effect3_dropShadow_2659_7125"></feBlend><feColorMatrix in="SourceAlpha" result="hardAlpha" values="0 0 0 0 0 0 0 0 0 0 0 0 0 0 0 0 0 0 127 0"></feColorMatrix><feOffset dx="19.061" dy="16.052"></feOffset><feGaussianBlur stdDeviation="5.016"></feGaussianBlur><feColorMatrix values="0 0 0 0 0 0 0 0 0 0 0 0 0 0 0 0 0 0 0.04 0"></feColorMatrix><feBlend in2="effect3_dropShadow_2659_7125" result="effect4_dropShadow_2659_7125"></feBlend><feBlend in="SourceGraphic" in2="effect4_dropShadow_2659_7125" result="shape"></feBlend><feColorMatrix in="SourceAlpha" result="hardAlpha" values="0 0 0 0 0 0 0 0 0 0 0 0 0 0 0 0 0 0 127 0"></feColorMatrix><feOffset dx="-1.003" dy="-1.003"></feOffset><feGaussianBlur stdDeviation=".502"></feGaussianBlur><feComposite in2="hardAlpha" k2="-1" k3="1" operator="arithmetic"></feComposite><feColorMatrix values="0 0 0 0 0 0 0 0 0 0 0 0 0 0 0 0 0 0 0.3 0"></feColorMatrix><feBlend in2="shape" result="effect5_innerShadow_2659_7125"></feBlend><feColorMatrix in="SourceAlpha" result="hardAlpha" values="0 0 0 0 0 0 0 0 0 0 0 0 0 0 0 0 0 0 127 0"></feColorMatrix><feOffset dx="1.003" dy="1.003"></feOffset><feGaussianBlur stdDeviation=".502"></feGaussianBlur><feComposite in2="hardAlpha" k2="-1" k3="1" operator="arithmetic"></feComposite><feColorMatrix values="0 0 0 0 1 0 0 0 0 1 0 0 0 0 1 0 0 0 0.4 0"></feColorMatrix><feBlend in2="effect5_innerShadow_2659_7125" result="effect6_innerShadow_2659_7125"></feBlend></filter></defs></svg>