<svg xmlns="http://www.w3.org/2000/svg" fill="none" viewBox="0 0 304 192"><path fill="#DFEAFE" d="M120 168v-48h72v15.672C192 153.526 177.526 168 159.672 168H120ZM184 80h15.225C208.489 80 216 72.49 216 63.225V48h-15.225C191.511 48 184 55.51 184 64.775V80ZM184 80h-15.225C159.511 80 152 87.51 152 96.775V112h15.225c9.264 0 16.775-7.511 16.775-16.775V80Z"></path><path fill="#C1D5FF" d="M152 48h15.225C176.489 48 184 55.51 184 64.775V80h-15.225C159.511 80 152 72.49 152 63.225V48Z"></path><g filter="url(#a)"><path fill="url(#b)" d="M184 80h15.225C208.489 80 216 87.51 216 96.775V112h-15.225C191.511 112 184 104.489 184 95.225V80Z"></path></g><path fill="#C1D5FF" d="M120 168c13.254 0 24-10.441 24-23.319V104H96v40.681C96 157.559 106.745 168 120 168Z"></path><path stroke="#2E52B4" d="M120 144V64.44C120 46.523 134.327 32 152 32c17.673 0 32 14.524 32 32.44v15.55"></path><circle cx="92" cy="52" r="12" fill="#DFEAFE"></circle><path fill="#2E52B4" d="M236.477 64.332a.509.509 0 0 0-.954 0l-.781 2.11a.507.507 0 0 1-.3.3l-2.11.781a.508.508 0 0 0 0 .954l2.11.78a.507.507 0 0 1 .3.3l.781 2.111c.164.443.79.443.954 0l.781-2.11a.507.507 0 0 1 .3-.3l2.11-.781a.508.508 0 0 0 0-.954l-2.11-.78a.507.507 0 0 1-.3-.3l-.781-2.111ZM85.265 58.512c.252-.683 1.218-.683 1.47 0l1.159 3.131c.08.215.248.384.463.463l3.131 1.159c.683.252.683 1.218 0 1.47l-3.131 1.159a.784.784 0 0 0-.463.463l-1.159 3.131c-.252.683-1.218.683-1.47 0l-1.159-3.131a.784.784 0 0 0-.463-.463l-3.131-1.159c-.683-.252-.683-1.218 0-1.47l3.131-1.159a.784.784 0 0 0 .463-.463l1.159-3.131Z"></path><path stroke="#7097FF" stroke-width=".6" d="M64.698 120.786c-.225-.608-1.044-.645-1.343-.113l-.053.113-1.545 4.176c-.12.322-.357.584-.661.736l-.134.059-4.176 1.545c-.608.225-.645 1.044-.113 1.344l.113.052 4.176 1.545c.322.119.584.357.736.661l.059.134 1.545 4.176c.225.608 1.044.645 1.343.113l.053-.113 1.545-4.176c.12-.322.357-.584.661-.736l.134-.059 4.176-1.545c.608-.225.645-1.044.113-1.344l-.113-.052-4.176-1.545a1.345 1.345 0 0 1-.736-.661l-.059-.134-1.545-4.176Z"></path><defs><linearGradient id="b" x1="184" x2="215.478" y1="80" y2="112.506" gradientUnits="userSpaceOnUse"><stop stop-color="#A4BCFF"></stop><stop offset="1" stop-color="#648EFF"></stop></linearGradient><filter id="a" width="63.1" height="60.425" x="181.994" y="77.659" color-interpolation-filters="sRGB" filterUnits="userSpaceOnUse"><feFlood flood-opacity="0" result="BackgroundImageFix"></feFlood><feColorMatrix in="SourceAlpha" result="hardAlpha" values="0 0 0 0 0 0 0 0 0 0 0 0 0 0 0 0 0 0 127 0"></feColorMatrix><feOffset dx="1.338" dy="1.003"></feOffset><feGaussianBlur stdDeviation="1.672"></feGaussianBlur><feColorMatrix values="0 0 0 0 0 0 0 0 0 0 0 0 0 0 0 0 0 0 0.25 0"></feColorMatrix><feBlend in2="BackgroundImageFix" result="effect1_dropShadow_2327_127"></feBlend><feColorMatrix in="SourceAlpha" result="hardAlpha" values="0 0 0 0 0 0 0 0 0 0 0 0 0 0 0 0 0 0 127 0"></feColorMatrix><feOffset dx="4.682" dy="4.013"></feOffset><feGaussianBlur stdDeviation="3.01"></feGaussianBlur><feColorMatrix values="0 0 0 0 0 0 0 0 0 0 0 0 0 0 0 0 0 0 0.21 0"></feColorMatrix><feBlend in2="effect1_dropShadow_2327_127" result="effect2_dropShadow_2327_127"></feBlend><feColorMatrix in="SourceAlpha" result="hardAlpha" values="0 0 0 0 0 0 0 0 0 0 0 0 0 0 0 0 0 0 127 0"></feColorMatrix><feOffset dx="10.701" dy="9.029"></feOffset><feGaussianBlur stdDeviation="4.18"></feGaussianBlur><feColorMatrix values="0 0 0 0 0 0 0 0 0 0 0 0 0 0 0 0 0 0 0.13 0"></feColorMatrix><feBlend in2="effect2_dropShadow_2327_127" result="effect3_dropShadow_2327_127"></feBlend><feColorMatrix in="SourceAlpha" result="hardAlpha" values="0 0 0 0 0 0 0 0 0 0 0 0 0 0 0 0 0 0 127 0"></feColorMatrix><feOffset dx="19.061" dy="16.052"></feOffset><feGaussianBlur stdDeviation="5.016"></feGaussianBlur><feColorMatrix values="0 0 0 0 0 0 0 0 0 0 0 0 0 0 0 0 0 0 0.04 0"></feColorMatrix><feBlend in2="effect3_dropShadow_2327_127" result="effect4_dropShadow_2327_127"></feBlend><feBlend in="SourceGraphic" in2="effect4_dropShadow_2327_127" result="shape"></feBlend><feColorMatrix in="SourceAlpha" result="hardAlpha" values="0 0 0 0 0 0 0 0 0 0 0 0 0 0 0 0 0 0 127 0"></feColorMatrix><feOffset dx="-1.003" dy="-1.003"></feOffset><feGaussianBlur stdDeviation=".502"></feGaussianBlur><feComposite in2="hardAlpha" k2="-1" k3="1" operator="arithmetic"></feComposite><feColorMatrix values="0 0 0 0 0 0 0 0 0 0 0 0 0 0 0 0 0 0 0.3 0"></feColorMatrix><feBlend in2="shape" result="effect5_innerShadow_2327_127"></feBlend><feColorMatrix in="SourceAlpha" result="hardAlpha" values="0 0 0 0 0 0 0 0 0 0 0 0 0 0 0 0 0 0 127 0"></feColorMatrix><feOffset dx="1.003" dy="1.003"></feOffset><feGaussianBlur stdDeviation=".502"></feGaussianBlur><feComposite in2="hardAlpha" k2="-1" k3="1" operator="arithmetic"></feComposite><feColorMatrix values="0 0 0 0 1 0 0 0 0 1 0 0 0 0 1 0 0 0 0.4 0"></feColorMatrix><feBlend in2="effect5_innerShadow_2327_127" result="effect6_innerShadow_2327_127"></feBlend></filter></defs></svg>