<svg xmlns="http://www.w3.org/2000/svg" fill="none" viewBox="0 0 304 192"><path stroke="#7097FF" stroke-width=".6" d="M104.698 144.786c-.225-.608-1.044-.645-1.344-.113l-.052.113-1.545 4.176a1.346 1.346 0 0 1-.661.736l-.134.059-4.176 1.545c-.608.225-.645 1.044-.113 1.344l.113.052 4.176 1.545c.322.119.584.357.736.661l.059.134 1.545 4.176c.225.608 1.044.645 1.344.113l.052-.113 1.545-4.176c.119-.322.357-.584.661-.736l.134-.059 4.176-1.545c.608-.225.645-1.044.113-1.344l-.113-.052-4.176-1.545a1.346 1.346 0 0 1-.736-.661l-.059-.134-1.545-4.176Z"></path><path fill="#2E52B4" d="M57.265 44.512c.252-.683 1.218-.683 1.47 0l1.159 3.131c.08.215.248.384.463.463l3.131 1.159c.683.252.683 1.218 0 1.47l-3.131 1.159a.784.784 0 0 0-.463.463l-1.159 3.131c-.252.683-1.218.683-1.47 0l-1.159-3.131a.784.784 0 0 0-.463-.463l-3.131-1.159c-.683-.252-.683-1.218 0-1.47l3.131-1.159a.784.784 0 0 0 .463-.463l1.159-3.131ZM236.477 128.332a.509.509 0 0 0-.954 0l-.781 2.11a.505.505 0 0 1-.3.3l-2.11.781a.509.509 0 0 0 0 .954l2.11.781a.505.505 0 0 1 .3.3l.781 2.11c.164.443.79.443.954 0l.781-2.11a.505.505 0 0 1 .3-.3l2.11-.781a.509.509 0 0 0 0-.954l-2.11-.781a.505.505 0 0 1-.3-.3l-.781-2.11ZM160 106v-2h16v2zM160 88v-2h16v2z"></path><path fill="#DFEAFE" d="M56 96c0-6.627 5.373-12 12-12h7c0 6.627-5.373 12-12 12h-7ZM264 48c-6.627 0-12-5.373-12-12v-7c6.627 0 12 5.373 12 12v7ZM56 96a8 8 0 0 0-8-8 8 8 0 0 0 8 8ZM264 48a8 8 0 0 0-8 8 8 8 0 0 0 8-8Z"></path><path fill="#C1D5FF" d="M40 152c13.255 0 24-10.745 24-24-13.255 0-24 10.745-24 24ZM264 120c-13.255 0-24-10.745-24-24 13.255 0 24 10.745 24 24Z"></path><path stroke="#2E52B4" d="M88 96H60c-11.046 0-20 8.954-20 20v52M216 96h28c11.046 0 20-8.954 20-20V24"></path><path fill="#C1D5FF" d="M128 64v64h-16c-13.255 0-24-10.745-24-24V88c0-13.255 10.745-24 24-24h16Z"></path><g filter="url(#a)"><path fill="url(#b)" d="M176 128V64h16c13.255 0 24 10.745 24 24v16c0 13.255-10.745 24-24 24h-16Z"></path></g><defs><linearGradient id="b" x1="176" x2="217.939" y1="67.5" y2="86.143" gradientUnits="userSpaceOnUse"><stop stop-color="#A4BCFF"></stop><stop offset="1" stop-color="#648EFF"></stop></linearGradient><filter id="a" width="71.1" height="92.425" x="173.994" y="61.659" color-interpolation-filters="sRGB" filterUnits="userSpaceOnUse"><feFlood flood-opacity="0" result="BackgroundImageFix"></feFlood><feColorMatrix in="SourceAlpha" result="hardAlpha" values="0 0 0 0 0 0 0 0 0 0 0 0 0 0 0 0 0 0 127 0"></feColorMatrix><feOffset dx="1.338" dy="1.003"></feOffset><feGaussianBlur stdDeviation="1.672"></feGaussianBlur><feColorMatrix values="0 0 0 0 0 0 0 0 0 0 0 0 0 0 0 0 0 0 0.25 0"></feColorMatrix><feBlend in2="BackgroundImageFix" result="effect1_dropShadow_2498_3497"></feBlend><feColorMatrix in="SourceAlpha" result="hardAlpha" values="0 0 0 0 0 0 0 0 0 0 0 0 0 0 0 0 0 0 127 0"></feColorMatrix><feOffset dx="4.682" dy="4.013"></feOffset><feGaussianBlur stdDeviation="3.01"></feGaussianBlur><feColorMatrix values="0 0 0 0 0 0 0 0 0 0 0 0 0 0 0 0 0 0 0.21 0"></feColorMatrix><feBlend in2="effect1_dropShadow_2498_3497" result="effect2_dropShadow_2498_3497"></feBlend><feColorMatrix in="SourceAlpha" result="hardAlpha" values="0 0 0 0 0 0 0 0 0 0 0 0 0 0 0 0 0 0 127 0"></feColorMatrix><feOffset dx="10.701" dy="9.029"></feOffset><feGaussianBlur stdDeviation="4.18"></feGaussianBlur><feColorMatrix values="0 0 0 0 0 0 0 0 0 0 0 0 0 0 0 0 0 0 0.13 0"></feColorMatrix><feBlend in2="effect2_dropShadow_2498_3497" result="effect3_dropShadow_2498_3497"></feBlend><feColorMatrix in="SourceAlpha" result="hardAlpha" values="0 0 0 0 0 0 0 0 0 0 0 0 0 0 0 0 0 0 127 0"></feColorMatrix><feOffset dx="19.061" dy="16.052"></feOffset><feGaussianBlur stdDeviation="5.016"></feGaussianBlur><feColorMatrix values="0 0 0 0 0 0 0 0 0 0 0 0 0 0 0 0 0 0 0.04 0"></feColorMatrix><feBlend in2="effect3_dropShadow_2498_3497" result="effect4_dropShadow_2498_3497"></feBlend><feBlend in="SourceGraphic" in2="effect4_dropShadow_2498_3497" result="shape"></feBlend><feColorMatrix in="SourceAlpha" result="hardAlpha" values="0 0 0 0 0 0 0 0 0 0 0 0 0 0 0 0 0 0 127 0"></feColorMatrix><feOffset dx="-1.003" dy="-1.003"></feOffset><feGaussianBlur stdDeviation=".502"></feGaussianBlur><feComposite in2="hardAlpha" k2="-1" k3="1" operator="arithmetic"></feComposite><feColorMatrix values="0 0 0 0 0 0 0 0 0 0 0 0 0 0 0 0 0 0 0.3 0"></feColorMatrix><feBlend in2="shape" result="effect5_innerShadow_2498_3497"></feBlend><feColorMatrix in="SourceAlpha" result="hardAlpha" values="0 0 0 0 0 0 0 0 0 0 0 0 0 0 0 0 0 0 127 0"></feColorMatrix><feOffset dx="1.003" dy="1.003"></feOffset><feGaussianBlur stdDeviation=".502"></feGaussianBlur><feComposite in2="hardAlpha" k2="-1" k3="1" operator="arithmetic"></feComposite><feColorMatrix values="0 0 0 0 1 0 0 0 0 1 0 0 0 0 1 0 0 0 0.4 0"></feColorMatrix><feBlend in2="effect5_innerShadow_2498_3497" result="effect6_innerShadow_2498_3497"></feBlend></filter></defs></svg>