<svg xmlns="http://www.w3.org/2000/svg" fill="none" viewBox="0 0 304 192"><ellipse cx="176" cy="69.5" fill="#C1D5FF" rx="37" ry="37.5"></ellipse><path fill="#DFEAFE" d="M208 64c26.51 0 48 21.49 48 48s-21.49 48-48 48-48-21.49-48-48 21.49-48 48-48Zm16.979 48.683c-.336-.91-1.622-.91-1.958 0l-1.546 4.174a1.048 1.048 0 0 1-.618.618l-4.174 1.546c-.91.336-.91 1.622 0 1.958l4.174 1.546c.286.106.512.332.618.618l1.546 4.174c.336.91 1.622.91 1.958 0l1.546-4.174c.106-.286.332-.512.618-.618l4.174-1.546c.91-.336.91-1.622 0-1.958l-4.174-1.546a1.048 1.048 0 0 1-.618-.618l-1.546-4.174Z"></path><ellipse cx="136" cy="125.5" fill="#DFEAFE" rx="29" ry="29.5"></ellipse><path stroke="#2E52B4" d="M124.5 116v26M105.5 149v-16M116.5 130v16M153.5 128v32M130.5 123v20"></path><g filter="url(#a)"><path fill="url(#b)" d="M154.221 66.615c-2.191 0-4.318.264-6.351.758-.205-10.73-9.345-19.373-20.6-19.373-9.45 0-17.413 6.1-19.844 14.406a22.648 22.648 0 0 0-9.802-2.217c-12.128 0-21.953 9.417-21.953 21.028 0 1.897.263 3.732.756 5.483C69.414 87.738 64 93.586 64 100.584v1.364C64 109.675 70.603 116 78.67 116h76.19c.626 0 1.247-.045 1.851-.118C169.776 114.681 180 104.136 180 91.307c0-13.637-11.542-24.692-25.779-24.692Z"></path></g><path stroke="#2E52B4" d="M139.5 128v13"></path><path fill="#2E52B4" d="M92.477 40.332a.508.508 0 0 0-.954 0l-.78 2.11a.508.508 0 0 1-.3.3l-2.111.781a.508.508 0 0 0 0 .954l2.11.78c.14.052.249.162.3.3l.781 2.111c.164.443.79.443.954 0l.78-2.11a.508.508 0 0 1 .3-.3l2.111-.781a.508.508 0 0 0 0-.954l-2.11-.78a.508.508 0 0 1-.3-.3l-.781-2.111Z"></path><path stroke="#7097FF" stroke-width=".6" d="M56.698 128.786c-.225-.608-1.044-.645-1.343-.113l-.053.113-1.545 4.176c-.12.322-.357.584-.661.736l-.134.059-4.176 1.545c-.608.225-.645 1.044-.113 1.344l.113.052 4.176 1.545c.322.119.584.357.736.661l.059.134 1.545 4.176c.225.608 1.044.645 1.343.113l.053-.113 1.545-4.176c.12-.322.357-.584.661-.736l.134-.059 4.176-1.545c.608-.225.645-1.044.113-1.344l-.113-.052-4.176-1.545a1.345 1.345 0 0 1-.736-.661l-.059-.134-1.545-4.176Z"></path><defs><linearGradient id="b" x1="110" x2="122" y1="67.5" y2="116" gradientUnits="userSpaceOnUse"><stop stop-color="#A4C1FF"></stop><stop offset="1" stop-color="#7499FF"></stop></linearGradient><filter id="a" width="147.1" height="96.425" x="61.993" y="45.659" color-interpolation-filters="sRGB" filterUnits="userSpaceOnUse"><feFlood flood-opacity="0" result="BackgroundImageFix"></feFlood><feColorMatrix in="SourceAlpha" result="hardAlpha" values="0 0 0 0 0 0 0 0 0 0 0 0 0 0 0 0 0 0 127 0"></feColorMatrix><feOffset dx="1.338" dy="1.003"></feOffset><feGaussianBlur stdDeviation="1.672"></feGaussianBlur><feColorMatrix values="0 0 0 0 0 0 0 0 0 0 0 0 0 0 0 0 0 0 0.25 0"></feColorMatrix><feBlend in2="BackgroundImageFix" result="effect1_dropShadow_2050_1201"></feBlend><feColorMatrix in="SourceAlpha" result="hardAlpha" values="0 0 0 0 0 0 0 0 0 0 0 0 0 0 0 0 0 0 127 0"></feColorMatrix><feOffset dx="4.682" dy="4.013"></feOffset><feGaussianBlur stdDeviation="3.01"></feGaussianBlur><feColorMatrix values="0 0 0 0 0 0 0 0 0 0 0 0 0 0 0 0 0 0 0.21 0"></feColorMatrix><feBlend in2="effect1_dropShadow_2050_1201" result="effect2_dropShadow_2050_1201"></feBlend><feColorMatrix in="SourceAlpha" result="hardAlpha" values="0 0 0 0 0 0 0 0 0 0 0 0 0 0 0 0 0 0 127 0"></feColorMatrix><feOffset dx="10.701" dy="9.029"></feOffset><feGaussianBlur stdDeviation="4.18"></feGaussianBlur><feColorMatrix values="0 0 0 0 0 0 0 0 0 0 0 0 0 0 0 0 0 0 0.13 0"></feColorMatrix><feBlend in2="effect2_dropShadow_2050_1201" result="effect3_dropShadow_2050_1201"></feBlend><feColorMatrix in="SourceAlpha" result="hardAlpha" values="0 0 0 0 0 0 0 0 0 0 0 0 0 0 0 0 0 0 127 0"></feColorMatrix><feOffset dx="19.061" dy="16.052"></feOffset><feGaussianBlur stdDeviation="5.016"></feGaussianBlur><feColorMatrix values="0 0 0 0 0 0 0 0 0 0 0 0 0 0 0 0 0 0 0.04 0"></feColorMatrix><feBlend in2="effect3_dropShadow_2050_1201" result="effect4_dropShadow_2050_1201"></feBlend><feBlend in="SourceGraphic" in2="effect4_dropShadow_2050_1201" result="shape"></feBlend><feColorMatrix in="SourceAlpha" result="hardAlpha" values="0 0 0 0 0 0 0 0 0 0 0 0 0 0 0 0 0 0 127 0"></feColorMatrix><feOffset dx="-1.003" dy="-1.003"></feOffset><feGaussianBlur stdDeviation=".502"></feGaussianBlur><feComposite in2="hardAlpha" k2="-1" k3="1" operator="arithmetic"></feComposite><feColorMatrix values="0 0 0 0 0 0 0 0 0 0 0 0 0 0 0 0 0 0 0.3 0"></feColorMatrix><feBlend in2="shape" result="effect5_innerShadow_2050_1201"></feBlend><feColorMatrix in="SourceAlpha" result="hardAlpha" values="0 0 0 0 0 0 0 0 0 0 0 0 0 0 0 0 0 0 127 0"></feColorMatrix><feOffset dx="1.003" dy="1.003"></feOffset><feGaussianBlur stdDeviation=".502"></feGaussianBlur><feComposite in2="hardAlpha" k2="-1" k3="1" operator="arithmetic"></feComposite><feColorMatrix values="0 0 0 0 1 0 0 0 0 1 0 0 0 0 1 0 0 0 0.4 0"></feColorMatrix><feBlend in2="effect5_innerShadow_2050_1201" result="effect6_innerShadow_2050_1201"></feBlend></filter></defs></svg>