<svg xmlns="http://www.w3.org/2000/svg" fill="none" viewBox="0 0 304 192"><g clip-path="url(#a)"><path stroke="#7097FF" stroke-width=".6" d="M188.477 40.332a.509.509 0 0 0-.954 0l-.781 2.11a.507.507 0 0 1-.3.3l-2.11.781a.508.508 0 0 0 0 .954l2.11.78a.507.507 0 0 1 .3.3l.781 2.111c.164.443.79.443.954 0l.781-2.11a.507.507 0 0 1 .3-.3l2.11-.781a.508.508 0 0 0 0-.954l-2.11-.78a.507.507 0 0 1-.3-.3l-.781-2.111Z"></path><path fill="#DFEAFE" d="M168 152h-39.741C106.025 152 88 133.975 88 111.741V64.259C88 42.025 106.025 24 128.259 24H168v128Zm-59.021-79.317c-.336-.91-1.622-.91-1.958 0l-1.546 4.174a1.046 1.046 0 0 1-.618.618l-4.174 1.546c-.91.336-.91 1.622 0 1.959l4.174 1.545c.286.106.512.332.618.618l1.546 4.174c.336.91 1.622.91 1.958 0l1.546-4.174c.106-.286.332-.512.618-.618l4.174-1.546c.91-.336.91-1.622 0-1.959l-4.174-1.545a1.046 1.046 0 0 1-.618-.618l-1.546-4.174Z"></path><g filter="url(#b)"><path fill="url(#c)" d="m179.421 72.193-63.62-26.959c-2.85-1.207-5.164 2.541-2.865 4.64l41.571 37.925c5.806 5.298 9.137 12.846 9.158 20.759l.157 56.647c.008 3.134 4.311 3.891 5.324.937l22.63-65.947c3.826-11.15-1.598-23.444-12.355-28.002Z"></path><path fill="#fff" fill-opacity=".4" d="m128.015 63.63 6.297-10.553 8.678 3.676-7.73 13.485-7.245-6.608ZM163.767 144.743l11.939 2.287 3.081-8.983-15.045-3.209.025 9.905Z"></path></g><path stroke="#2E52B4" stroke-dasharray="2 2" d="m151 92-22.647 13.075c-9.566 5.523-12.844 17.755-7.321 27.321L126 141"></path><path stroke="#2E52B4" stroke-dasharray="2 2" d="m152 106-21.333 12.317c-4.791 2.766-6.433 8.892-3.667 13.683"></path><path fill="#2E52B4" d="M104.477 140.332a.509.509 0 0 0-.954 0l-.781 2.11a.505.505 0 0 1-.3.3l-2.11.781a.509.509 0 0 0 0 .954l2.11.781a.505.505 0 0 1 .3.3l.781 2.11c.164.443.79.443.954 0l.781-2.11a.505.505 0 0 1 .3-.3l2.11-.781a.509.509 0 0 0 0-.954l-2.11-.781a.505.505 0 0 1-.3-.3l-.781-2.11Z"></path></g><defs><linearGradient id="c" x1="77.5" x2="96.063" y1="27" y2="131.224" gradientUnits="userSpaceOnUse"><stop stop-color="#A4BCFF"></stop><stop offset="1" stop-color="#648EFF"></stop></linearGradient><clipPath id="a"><path fill="#fff" d="M0 0h304v192H0z"></path></clipPath><filter id="b" width="112.1" height="151.425" x="109.994" y="42.659" color-interpolation-filters="sRGB" filterUnits="userSpaceOnUse"><feFlood flood-opacity="0" result="BackgroundImageFix"></feFlood><feColorMatrix in="SourceAlpha" result="hardAlpha" values="0 0 0 0 0 0 0 0 0 0 0 0 0 0 0 0 0 0 127 0"></feColorMatrix><feOffset dx="1.338" dy="1.003"></feOffset><feGaussianBlur stdDeviation="1.672"></feGaussianBlur><feColorMatrix values="0 0 0 0 0 0 0 0 0 0 0 0 0 0 0 0 0 0 0.25 0"></feColorMatrix><feBlend in2="BackgroundImageFix" result="effect1_dropShadow_2659_7012"></feBlend><feColorMatrix in="SourceAlpha" result="hardAlpha" values="0 0 0 0 0 0 0 0 0 0 0 0 0 0 0 0 0 0 127 0"></feColorMatrix><feOffset dx="4.682" dy="4.013"></feOffset><feGaussianBlur stdDeviation="3.01"></feGaussianBlur><feColorMatrix values="0 0 0 0 0 0 0 0 0 0 0 0 0 0 0 0 0 0 0.21 0"></feColorMatrix><feBlend in2="effect1_dropShadow_2659_7012" result="effect2_dropShadow_2659_7012"></feBlend><feColorMatrix in="SourceAlpha" result="hardAlpha" values="0 0 0 0 0 0 0 0 0 0 0 0 0 0 0 0 0 0 127 0"></feColorMatrix><feOffset dx="10.701" dy="9.029"></feOffset><feGaussianBlur stdDeviation="4.18"></feGaussianBlur><feColorMatrix values="0 0 0 0 0 0 0 0 0 0 0 0 0 0 0 0 0 0 0.13 0"></feColorMatrix><feBlend in2="effect2_dropShadow_2659_7012" result="effect3_dropShadow_2659_7012"></feBlend><feColorMatrix in="SourceAlpha" result="hardAlpha" values="0 0 0 0 0 0 0 0 0 0 0 0 0 0 0 0 0 0 127 0"></feColorMatrix><feOffset dx="19.061" dy="16.052"></feOffset><feGaussianBlur stdDeviation="5.016"></feGaussianBlur><feColorMatrix values="0 0 0 0 0 0 0 0 0 0 0 0 0 0 0 0 0 0 0.04 0"></feColorMatrix><feBlend in2="effect3_dropShadow_2659_7012" result="effect4_dropShadow_2659_7012"></feBlend><feBlend in="SourceGraphic" in2="effect4_dropShadow_2659_7012" result="shape"></feBlend><feColorMatrix in="SourceAlpha" result="hardAlpha" values="0 0 0 0 0 0 0 0 0 0 0 0 0 0 0 0 0 0 127 0"></feColorMatrix><feOffset dx="-1.003" dy="-1.003"></feOffset><feGaussianBlur stdDeviation=".502"></feGaussianBlur><feComposite in2="hardAlpha" k2="-1" k3="1" operator="arithmetic"></feComposite><feColorMatrix values="0 0 0 0 0 0 0 0 0 0 0 0 0 0 0 0 0 0 0.3 0"></feColorMatrix><feBlend in2="shape" result="effect5_innerShadow_2659_7012"></feBlend><feColorMatrix in="SourceAlpha" result="hardAlpha" values="0 0 0 0 0 0 0 0 0 0 0 0 0 0 0 0 0 0 127 0"></feColorMatrix><feOffset dx="1.003" dy="1.003"></feOffset><feGaussianBlur stdDeviation=".502"></feGaussianBlur><feComposite in2="hardAlpha" k2="-1" k3="1" operator="arithmetic"></feComposite><feColorMatrix values="0 0 0 0 1 0 0 0 0 1 0 0 0 0 1 0 0 0 0.4 0"></feColorMatrix><feBlend in2="effect5_innerShadow_2659_7012" result="effect6_innerShadow_2659_7012"></feBlend></filter></defs></svg>