<svg xmlns="http://www.w3.org/2000/svg" fill="none" viewBox="0 0 304 192"><path fill="#DFEAFE" d="M156 160h-27.672C110.474 160 96 145.526 96 127.672V100c0-17.673 14.327-32 32-32h28v92Zm-39.021-35.317c-.336-.91-1.622-.91-1.958 0l-1.546 4.174a1.048 1.048 0 0 1-.618.618l-4.174 1.546c-.91.336-.91 1.622 0 1.958l4.174 1.546c.286.106.512.332.618.618l1.546 4.174c.336.91 1.622.91 1.958 0l1.546-4.174c.106-.286.332-.512.618-.618l4.174-1.546c.91-.336.91-1.622 0-1.958l-4.174-1.546a1.048 1.048 0 0 1-.618-.618l-1.546-4.174Z"></path><path stroke="#7097FF" stroke-width=".6" d="M132.477 88.332a.509.509 0 0 0-.954 0l-.781 2.11a.507.507 0 0 1-.3.3l-2.11.781a.508.508 0 0 0 0 .954l2.11.78a.507.507 0 0 1 .3.3l.781 2.111c.164.443.79.443.954 0l.781-2.11a.507.507 0 0 1 .3-.3l2.11-.781a.508.508 0 0 0 0-.954l-2.11-.78a.507.507 0 0 1-.3-.3l-.781-2.111Z"></path><path fill="#2E52B4" d="M204.477 104.332a.509.509 0 0 0-.954 0l-.781 2.11a.505.505 0 0 1-.3.3l-2.11.781a.509.509 0 0 0 0 .954l2.11.781a.505.505 0 0 1 .3.3l.781 2.11c.164.443.79.443.954 0l.781-2.11a.505.505 0 0 1 .3-.3l2.11-.781a.509.509 0 0 0 0-.954l-2.11-.781a.505.505 0 0 1-.3-.3l-.781-2.11Z"></path><path fill="#C1D5FF" d="M167.5 112c-13.531 0-24.5 10.607-24.5 23.69V168h49v-32.31c0-13.083-10.97-23.69-24.5-23.69ZM167 56c-17.673 0-32-14.327-32-32 17.673 0 32 14.327 32 32ZM168 72c17.673 0 32-14.327 32-32-17.673 0-32 14.327-32 32ZM167 88c-17.673 0-32-14.327-32-32 17.673 0 32 14.327 32 32Z"></path><path stroke="#2E52B4" d="M167.5 32v120"></path><g filter="url(#a)"><path fill="url(#b)" d="M168 104c17.673 0 32-14.327 32-32-17.673 0-32 14.327-32 32Z"></path><path fill="#fff" fill-opacity=".4" d="m168 104 32-32c-17.673 0-32 14.327-32 32Z"></path></g><circle cx="108" cy="44" r="12" fill="#C1D5FF"></circle><defs><linearGradient id="b" x1="178" x2="190" y1="80.4" y2="91.5" gradientUnits="userSpaceOnUse"><stop stop-color="#A4C1FF"></stop><stop offset="1" stop-color="#648EFF"></stop></linearGradient><filter id="a" width="63.1" height="60.425" x="165.994" y="69.659" color-interpolation-filters="sRGB" filterUnits="userSpaceOnUse"><feFlood flood-opacity="0" result="BackgroundImageFix"></feFlood><feColorMatrix in="SourceAlpha" result="hardAlpha" values="0 0 0 0 0 0 0 0 0 0 0 0 0 0 0 0 0 0 127 0"></feColorMatrix><feOffset dx="1.338" dy="1.003"></feOffset><feGaussianBlur stdDeviation="1.672"></feGaussianBlur><feColorMatrix values="0 0 0 0 0 0 0 0 0 0 0 0 0 0 0 0 0 0 0.25 0"></feColorMatrix><feBlend in2="BackgroundImageFix" result="effect1_dropShadow_2809_32958"></feBlend><feColorMatrix in="SourceAlpha" result="hardAlpha" values="0 0 0 0 0 0 0 0 0 0 0 0 0 0 0 0 0 0 127 0"></feColorMatrix><feOffset dx="4.682" dy="4.013"></feOffset><feGaussianBlur stdDeviation="3.01"></feGaussianBlur><feColorMatrix values="0 0 0 0 0 0 0 0 0 0 0 0 0 0 0 0 0 0 0.21 0"></feColorMatrix><feBlend in2="effect1_dropShadow_2809_32958" result="effect2_dropShadow_2809_32958"></feBlend><feColorMatrix in="SourceAlpha" result="hardAlpha" values="0 0 0 0 0 0 0 0 0 0 0 0 0 0 0 0 0 0 127 0"></feColorMatrix><feOffset dx="10.701" dy="9.029"></feOffset><feGaussianBlur stdDeviation="4.18"></feGaussianBlur><feColorMatrix values="0 0 0 0 0 0 0 0 0 0 0 0 0 0 0 0 0 0 0.13 0"></feColorMatrix><feBlend in2="effect2_dropShadow_2809_32958" result="effect3_dropShadow_2809_32958"></feBlend><feColorMatrix in="SourceAlpha" result="hardAlpha" values="0 0 0 0 0 0 0 0 0 0 0 0 0 0 0 0 0 0 127 0"></feColorMatrix><feOffset dx="19.061" dy="16.052"></feOffset><feGaussianBlur stdDeviation="5.016"></feGaussianBlur><feColorMatrix values="0 0 0 0 0 0 0 0 0 0 0 0 0 0 0 0 0 0 0.04 0"></feColorMatrix><feBlend in2="effect3_dropShadow_2809_32958" result="effect4_dropShadow_2809_32958"></feBlend><feBlend in="SourceGraphic" in2="effect4_dropShadow_2809_32958" result="shape"></feBlend><feColorMatrix in="SourceAlpha" result="hardAlpha" values="0 0 0 0 0 0 0 0 0 0 0 0 0 0 0 0 0 0 127 0"></feColorMatrix><feOffset dx="-1.003" dy="-1.003"></feOffset><feGaussianBlur stdDeviation=".502"></feGaussianBlur><feComposite in2="hardAlpha" k2="-1" k3="1" operator="arithmetic"></feComposite><feColorMatrix values="0 0 0 0 0 0 0 0 0 0 0 0 0 0 0 0 0 0 0.3 0"></feColorMatrix><feBlend in2="shape" result="effect5_innerShadow_2809_32958"></feBlend><feColorMatrix in="SourceAlpha" result="hardAlpha" values="0 0 0 0 0 0 0 0 0 0 0 0 0 0 0 0 0 0 127 0"></feColorMatrix><feOffset dx="1.003" dy="1.003"></feOffset><feGaussianBlur stdDeviation=".502"></feGaussianBlur><feComposite in2="hardAlpha" k2="-1" k3="1" operator="arithmetic"></feComposite><feColorMatrix values="0 0 0 0 1 0 0 0 0 1 0 0 0 0 1 0 0 0 0.4 0"></feColorMatrix><feBlend in2="effect5_innerShadow_2809_32958" result="effect6_innerShadow_2809_32958"></feBlend></filter></defs></svg>