<svg xmlns="http://www.w3.org/2000/svg" fill="none" viewBox="0 0 304 192"><path fill="#C1D5FF" d="M224 168a20.006 20.006 0 0 0-5.858-14.142 20.006 20.006 0 0 0-28.284 0A20.006 20.006 0 0 0 184 168h40Z"></path><path stroke="#7097FF" stroke-width=".6" d="M96.698 48.786c-.225-.608-1.044-.645-1.343-.113l-.053.113-1.545 4.176c-.12.322-.357.584-.661.736l-.134.059-4.176 1.545c-.608.225-.645 1.044-.113 1.343l.113.053 4.176 1.545c.322.12.584.357.736.661l.059.134 1.545 4.176c.225.608 1.044.645 1.343.113l.053-.113 1.545-4.176c.12-.322.357-.584.661-.736l.134-.059 4.176-1.545c.608-.225.645-1.044.113-1.343l-.113-.053-4.176-1.545a1.345 1.345 0 0 1-.736-.661l-.059-.134-1.545-4.176Z"></path><path fill="#DFEAFE" d="M152 24c22.091 0 40 17.909 40 40s-17.909 40-40 40-40-17.909-40-40 17.909-40 40-40Zm-11.523 32.332a.509.509 0 0 0-.954 0l-.781 2.11a.507.507 0 0 1-.3.3l-2.11.781a.508.508 0 0 0 0 .954l2.11.78c.139.052.249.162.3.3l.781 2.111c.164.443.79.443.954 0l.781-2.11a.507.507 0 0 1 .3-.3l2.11-.781a.508.508 0 0 0 0-.954l-2.11-.78a.507.507 0 0 1-.3-.3l-.781-2.111Z"></path><path fill="#2E52B4" d="M81.265 84.512c.252-.683 1.218-.683 1.47 0l1.159 3.131c.08.215.248.384.463.463l3.131 1.159c.683.252.683 1.218 0 1.47l-3.131 1.159a.784.784 0 0 0-.463.463l-1.159 3.131c-.252.683-1.218.683-1.47 0l-1.159-3.131a.784.784 0 0 0-.463-.463l-3.131-1.159c-.683-.252-.683-1.218 0-1.47l3.131-1.159a.784.784 0 0 0 .463-.463l1.159-3.131Z"></path><path fill="#C1D5FF" d="M172 168a20.006 20.006 0 0 0-5.858-14.142 20.006 20.006 0 0 0-28.284 0A20.006 20.006 0 0 0 132 168h40ZM152 144c8.837 0 16-7.163 16-16-8.837 0-16 7.163-16 16ZM152 144c-8.837 0-16-7.163-16-16 8.837 0 16 7.163 16 16Z"></path><path stroke="#2E52B4" d="M152 144v15"></path><path fill="#C1D5FF" d="M120 168a20.006 20.006 0 0 0-5.858-14.142 20.006 20.006 0 0 0-28.284 0A20.001 20.001 0 0 0 80 168h40ZM100 144c8.837 0 16-7.163 16-16-8.837 0-16 7.163-16 16ZM100 144c-8.837 0-16-7.163-16-16 8.837 0 16 7.163 16 16Z"></path><path stroke="#2E52B4" d="M100 144v15"></path><g fill="#C1D5FF"><path d="M204 136h4a8 8 0 0 0 8-8v-4h-4a8 8 0 0 0-8 8v4ZM204 136h-6.667C189.97 136 184 130.03 184 122.667V116h6.667c7.363 0 13.333 5.97 13.333 13.333V136ZM204 112h4a8 8 0 0 0 8-8v-4h-4a8 8 0 0 0-8 8v4ZM204 112h-6.667C189.97 112 184 106.03 184 98.667V92h6.667C198.03 92 204 97.97 204 105.333V112Z"></path></g><path stroke="#2E52B4" d="M204 159V90.5c0-8.837-7.163-16-16-16"></path><g filter="url(#a)"><path fill="url(#b)" d="M171 51h13.66c8.472 0 15.34 6.868 15.34 15.34V80h-13.66C177.868 80 171 73.132 171 64.66V51Z"></path><path fill="#fff" fill-opacity=".4" d="m171 51 29 29h-13.66C177.868 80 171 73.132 171 64.66V51Z"></path></g><defs><linearGradient id="b" x1="171" x2="199.527" y1="51" y2="80.459" gradientUnits="userSpaceOnUse"><stop stop-color="#A4BCFF"></stop><stop offset="1" stop-color="#648EFF"></stop></linearGradient><filter id="a" width="60.1" height="57.425" x="168.994" y="48.659" color-interpolation-filters="sRGB" filterUnits="userSpaceOnUse"><feFlood flood-opacity="0" result="BackgroundImageFix"></feFlood><feColorMatrix in="SourceAlpha" result="hardAlpha" values="0 0 0 0 0 0 0 0 0 0 0 0 0 0 0 0 0 0 127 0"></feColorMatrix><feOffset dx="1.338" dy="1.003"></feOffset><feGaussianBlur stdDeviation="1.672"></feGaussianBlur><feColorMatrix values="0 0 0 0 0 0 0 0 0 0 0 0 0 0 0 0 0 0 0.25 0"></feColorMatrix><feBlend in2="BackgroundImageFix" result="effect1_dropShadow_2907_48466"></feBlend><feColorMatrix in="SourceAlpha" result="hardAlpha" values="0 0 0 0 0 0 0 0 0 0 0 0 0 0 0 0 0 0 127 0"></feColorMatrix><feOffset dx="4.682" dy="4.013"></feOffset><feGaussianBlur stdDeviation="3.01"></feGaussianBlur><feColorMatrix values="0 0 0 0 0 0 0 0 0 0 0 0 0 0 0 0 0 0 0.21 0"></feColorMatrix><feBlend in2="effect1_dropShadow_2907_48466" result="effect2_dropShadow_2907_48466"></feBlend><feColorMatrix in="SourceAlpha" result="hardAlpha" values="0 0 0 0 0 0 0 0 0 0 0 0 0 0 0 0 0 0 127 0"></feColorMatrix><feOffset dx="10.701" dy="9.029"></feOffset><feGaussianBlur stdDeviation="4.18"></feGaussianBlur><feColorMatrix values="0 0 0 0 0 0 0 0 0 0 0 0 0 0 0 0 0 0 0.13 0"></feColorMatrix><feBlend in2="effect2_dropShadow_2907_48466" result="effect3_dropShadow_2907_48466"></feBlend><feColorMatrix in="SourceAlpha" result="hardAlpha" values="0 0 0 0 0 0 0 0 0 0 0 0 0 0 0 0 0 0 127 0"></feColorMatrix><feOffset dx="19.061" dy="16.052"></feOffset><feGaussianBlur stdDeviation="5.016"></feGaussianBlur><feColorMatrix values="0 0 0 0 0 0 0 0 0 0 0 0 0 0 0 0 0 0 0.04 0"></feColorMatrix><feBlend in2="effect3_dropShadow_2907_48466" result="effect4_dropShadow_2907_48466"></feBlend><feBlend in="SourceGraphic" in2="effect4_dropShadow_2907_48466" result="shape"></feBlend><feColorMatrix in="SourceAlpha" result="hardAlpha" values="0 0 0 0 0 0 0 0 0 0 0 0 0 0 0 0 0 0 127 0"></feColorMatrix><feOffset dx="-1.003" dy="-1.003"></feOffset><feGaussianBlur stdDeviation=".502"></feGaussianBlur><feComposite in2="hardAlpha" k2="-1" k3="1" operator="arithmetic"></feComposite><feColorMatrix values="0 0 0 0 0 0 0 0 0 0 0 0 0 0 0 0 0 0 0.3 0"></feColorMatrix><feBlend in2="shape" result="effect5_innerShadow_2907_48466"></feBlend><feColorMatrix in="SourceAlpha" result="hardAlpha" values="0 0 0 0 0 0 0 0 0 0 0 0 0 0 0 0 0 0 127 0"></feColorMatrix><feOffset dx="1.003" dy="1.003"></feOffset><feGaussianBlur stdDeviation=".502"></feGaussianBlur><feComposite in2="hardAlpha" k2="-1" k3="1" operator="arithmetic"></feComposite><feColorMatrix values="0 0 0 0 1 0 0 0 0 1 0 0 0 0 1 0 0 0 0.4 0"></feColorMatrix><feBlend in2="effect5_innerShadow_2907_48466" result="effect6_innerShadow_2907_48466"></feBlend></filter></defs></svg>