<svg xmlns="http://www.w3.org/2000/svg" fill="none" viewBox="0 0 304 192"><path fill="#C1D5FF" d="m132 32 60 120H72l60-120Z"></path><path stroke="#7097FF" stroke-width=".6" d="M174.453 24.616a.484.484 0 0 0-.873-.074l-.033.074-1.159 3.131c-.096.26-.288.471-.533.594l-.108.047-3.131 1.159a.484.484 0 0 0-.074.873l.074.033 3.131 1.16c.26.095.471.287.594.532l.047.108 1.159 3.13c.146.396.679.42.873.075l.033-.074 1.159-3.131c.096-.26.288-.471.533-.594l.108-.047 3.131-1.159a.484.484 0 0 0 .074-.873l-.074-.033-3.131-1.16a1.086 1.086 0 0 1-.594-.532l-.047-.108-1.159-3.13Z"></path><path fill="#2E52B4" d="M77.265 56.512c.252-.683 1.218-.683 1.47 0l1.159 3.131c.08.215.248.384.463.463l3.131 1.159c.683.252.683 1.218 0 1.47l-3.131 1.159a.784.784 0 0 0-.463.463l-1.159 3.131c-.252.683-1.218.683-1.47 0l-1.159-3.131a.784.784 0 0 0-.463-.463l-3.131-1.159c-.683-.252-.683-1.218 0-1.47l3.131-1.159a.784.784 0 0 0 .463-.463l1.159-3.131ZM228.477 72.332a.509.509 0 0 0-.954 0l-.781 2.11a.507.507 0 0 1-.3.3l-2.11.781a.508.508 0 0 0 0 .954l2.11.78a.507.507 0 0 1 .3.3l.781 2.111c.164.443.79.443.954 0l.781-2.11a.507.507 0 0 1 .3-.3l2.11-.781a.508.508 0 0 0 0-.954l-2.11-.78a.507.507 0 0 1-.3-.3l-.781-2.111Z"></path><g fill="#DFEAFE"><path d="M196 88a28 28 0 1 0-56 0h56Z"></path><path d="M147 88c0-4.243-1.633-8.313-4.54-11.314-2.907-3-6.849-4.686-10.96-4.686-4.111 0-8.053 1.686-10.96 4.686S116 83.756 116 88h31Z"></path></g><g fill="#DFEAFE"><path d="M40 128c0-10.609 4.214-20.86 11.716-28.361a40 40 0 0 1 56.568 0C115.786 107.14 120 117.39 120 128l-40-.077L40 128Z"></path><path d="M106 128c0-5.018 2.56-9.91 6.022-13.458 3.463-3.549 8.158-5.542 13.055-5.542 4.896 0 9.592 1.993 13.054 5.542C141.593 118.09 144 122.982 144 128l-18.923-.079L106 128Z"></path></g><g filter="url(#a)"><path fill="url(#b)" d="m188 56-52 104h104L188 56Z"></path><path fill="#fff" fill-opacity=".4" d="m188 56-22 44h44l-22-44Z"></path></g><defs><linearGradient id="b" x1="165.5" x2="198" y1="94.5" y2="145.5" gradientUnits="userSpaceOnUse"><stop stop-color="#A4C1FF"></stop><stop offset="1" stop-color="#7499FF"></stop></linearGradient><filter id="a" width="135.1" height="132.425" x="133.994" y="53.659" color-interpolation-filters="sRGB" filterUnits="userSpaceOnUse"><feFlood flood-opacity="0" result="BackgroundImageFix"></feFlood><feColorMatrix in="SourceAlpha" result="hardAlpha" values="0 0 0 0 0 0 0 0 0 0 0 0 0 0 0 0 0 0 127 0"></feColorMatrix><feOffset dx="1.338" dy="1.003"></feOffset><feGaussianBlur stdDeviation="1.672"></feGaussianBlur><feColorMatrix values="0 0 0 0 0 0 0 0 0 0 0 0 0 0 0 0 0 0 0.25 0"></feColorMatrix><feBlend in2="BackgroundImageFix" result="effect1_dropShadow_2665_55824"></feBlend><feColorMatrix in="SourceAlpha" result="hardAlpha" values="0 0 0 0 0 0 0 0 0 0 0 0 0 0 0 0 0 0 127 0"></feColorMatrix><feOffset dx="4.682" dy="4.013"></feOffset><feGaussianBlur stdDeviation="3.01"></feGaussianBlur><feColorMatrix values="0 0 0 0 0 0 0 0 0 0 0 0 0 0 0 0 0 0 0.21 0"></feColorMatrix><feBlend in2="effect1_dropShadow_2665_55824" result="effect2_dropShadow_2665_55824"></feBlend><feColorMatrix in="SourceAlpha" result="hardAlpha" values="0 0 0 0 0 0 0 0 0 0 0 0 0 0 0 0 0 0 127 0"></feColorMatrix><feOffset dx="10.701" dy="9.029"></feOffset><feGaussianBlur stdDeviation="4.18"></feGaussianBlur><feColorMatrix values="0 0 0 0 0 0 0 0 0 0 0 0 0 0 0 0 0 0 0.13 0"></feColorMatrix><feBlend in2="effect2_dropShadow_2665_55824" result="effect3_dropShadow_2665_55824"></feBlend><feColorMatrix in="SourceAlpha" result="hardAlpha" values="0 0 0 0 0 0 0 0 0 0 0 0 0 0 0 0 0 0 127 0"></feColorMatrix><feOffset dx="19.061" dy="16.052"></feOffset><feGaussianBlur stdDeviation="5.016"></feGaussianBlur><feColorMatrix values="0 0 0 0 0 0 0 0 0 0 0 0 0 0 0 0 0 0 0.04 0"></feColorMatrix><feBlend in2="effect3_dropShadow_2665_55824" result="effect4_dropShadow_2665_55824"></feBlend><feBlend in="SourceGraphic" in2="effect4_dropShadow_2665_55824" result="shape"></feBlend><feColorMatrix in="SourceAlpha" result="hardAlpha" values="0 0 0 0 0 0 0 0 0 0 0 0 0 0 0 0 0 0 127 0"></feColorMatrix><feOffset dx="-1.003" dy="-1.003"></feOffset><feGaussianBlur stdDeviation=".502"></feGaussianBlur><feComposite in2="hardAlpha" k2="-1" k3="1" operator="arithmetic"></feComposite><feColorMatrix values="0 0 0 0 0 0 0 0 0 0 0 0 0 0 0 0 0 0 0.3 0"></feColorMatrix><feBlend in2="shape" result="effect5_innerShadow_2665_55824"></feBlend><feColorMatrix in="SourceAlpha" result="hardAlpha" values="0 0 0 0 0 0 0 0 0 0 0 0 0 0 0 0 0 0 127 0"></feColorMatrix><feOffset dx="1.003" dy="1.003"></feOffset><feGaussianBlur stdDeviation=".502"></feGaussianBlur><feComposite in2="hardAlpha" k2="-1" k3="1" operator="arithmetic"></feComposite><feColorMatrix values="0 0 0 0 1 0 0 0 0 1 0 0 0 0 1 0 0 0 0.4 0"></feColorMatrix><feBlend in2="effect5_innerShadow_2665_55824" result="effect6_innerShadow_2665_55824"></feBlend></filter></defs></svg>