<svg xmlns="http://www.w3.org/2000/svg" fill="none" viewBox="0 0 304 192"><path stroke="#2E52B4" d="M204 168V96.878M232 168l-28-71M176 168l27.904-71.188"></path><path fill="#DFEAFE" d="M120 24c22.091 0 40 17.909 40 40v72H80V64c0-22.091 17.909-40 40-40Zm16.979 64.683c-.336-.91-1.622-.91-1.958 0l-1.546 4.174a1.046 1.046 0 0 1-.618.618l-4.174 1.546c-.91.336-.91 1.622 0 1.959l4.174 1.545c.286.106.512.332.618.618l1.546 4.174c.336.91 1.622.91 1.958 0l1.546-4.174c.106-.286.332-.512.618-.618l4.174-1.546c.91-.336.91-1.622 0-1.959l-4.174-1.545a1.046 1.046 0 0 1-.618-.618l-1.546-4.174Z"></path><path stroke="#7097FF" stroke-width=".6" d="M102.453 116.616a.484.484 0 0 0-.873-.074l-.033.074-1.159 3.131c-.096.26-.288.471-.532.594l-.109.047-3.13 1.159a.484.484 0 0 0-.075.873l.074.033 3.131 1.159c.26.096.471.288.594.533l.047.108 1.159 3.131c.146.395.679.42.873.074l.033-.074 1.159-3.131c.096-.26.288-.471.533-.594l.108-.047 3.131-1.159a.484.484 0 0 0 .074-.873l-.074-.033-3.131-1.159a1.087 1.087 0 0 1-.594-.533l-.047-.108-1.159-3.131Z"></path><path fill="#C1D5FF" d="m209.564 60.457 11.96-12.08 7.476 7.55-11.961 12.08z"></path><path fill="#C1D5FF" d="M204.226 56.304a11.549 11.549 0 0 1 16.446 0c4.541 4.587 4.541 12.023 0 16.61l-30.649 30.952-16.446-16.609 30.649-30.953Z"></path><path fill="#2E52B4" d="M207.599 73.096a2.667 2.667 0 1 0 5.334 0 2.667 2.667 0 0 0-5.334 0Zm3.167 15.879v-15.88h-1v15.88h1Zm-8.109 8.11a8.11 8.11 0 0 0 8.109-8.11h-1a7.11 7.11 0 0 1-7.109 7.11v1Z"></path><path fill="#C1D5FF" d="m182.838 71.025 23.921 24.158-42.985 43.411-23.921-24.158 42.985-43.411Z"></path><ellipse cx="16.999" cy="7.453" fill="#7097FF" rx="16.999" ry="7.453" transform="scale(.99505 1.00492) rotate(45 -58.231 230.304)"></ellipse><g filter="url(#a)"><circle cx="120" cy="58" r="18" fill="url(#b)"></circle></g><path fill="#2E52B4" d="M80.477 96.332a.508.508 0 0 0-.954 0l-.78 2.11a.508.508 0 0 1-.3.3l-2.111.781a.509.509 0 0 0 0 .954l2.11.781c.14.051.249.161.3.3l.781 2.11c.164.443.79.443.954 0l.78-2.11a.507.507 0 0 1 .3-.3l2.111-.781a.509.509 0 0 0 0-.954l-2.11-.78a.508.508 0 0 1-.3-.3l-.781-2.111Z"></path><defs><linearGradient id="b" x1="102" x2="137.412" y1="40" y2="76.569" gradientUnits="userSpaceOnUse"><stop stop-color="#A4BCFF"></stop><stop offset="1" stop-color="#648EFF"></stop></linearGradient><filter id="a" width="67.1" height="64.425" x="99.993" y="37.659" color-interpolation-filters="sRGB" filterUnits="userSpaceOnUse"><feFlood flood-opacity="0" result="BackgroundImageFix"></feFlood><feColorMatrix in="SourceAlpha" result="hardAlpha" values="0 0 0 0 0 0 0 0 0 0 0 0 0 0 0 0 0 0 127 0"></feColorMatrix><feOffset dx="1.338" dy="1.003"></feOffset><feGaussianBlur stdDeviation="1.672"></feGaussianBlur><feColorMatrix values="0 0 0 0 0 0 0 0 0 0 0 0 0 0 0 0 0 0 0.25 0"></feColorMatrix><feBlend in2="BackgroundImageFix" result="effect1_dropShadow_2687_70046"></feBlend><feColorMatrix in="SourceAlpha" result="hardAlpha" values="0 0 0 0 0 0 0 0 0 0 0 0 0 0 0 0 0 0 127 0"></feColorMatrix><feOffset dx="4.682" dy="4.013"></feOffset><feGaussianBlur stdDeviation="3.01"></feGaussianBlur><feColorMatrix values="0 0 0 0 0 0 0 0 0 0 0 0 0 0 0 0 0 0 0.21 0"></feColorMatrix><feBlend in2="effect1_dropShadow_2687_70046" result="effect2_dropShadow_2687_70046"></feBlend><feColorMatrix in="SourceAlpha" result="hardAlpha" values="0 0 0 0 0 0 0 0 0 0 0 0 0 0 0 0 0 0 127 0"></feColorMatrix><feOffset dx="10.701" dy="9.029"></feOffset><feGaussianBlur stdDeviation="4.18"></feGaussianBlur><feColorMatrix values="0 0 0 0 0 0 0 0 0 0 0 0 0 0 0 0 0 0 0.13 0"></feColorMatrix><feBlend in2="effect2_dropShadow_2687_70046" result="effect3_dropShadow_2687_70046"></feBlend><feColorMatrix in="SourceAlpha" result="hardAlpha" values="0 0 0 0 0 0 0 0 0 0 0 0 0 0 0 0 0 0 127 0"></feColorMatrix><feOffset dx="19.061" dy="16.052"></feOffset><feGaussianBlur stdDeviation="5.016"></feGaussianBlur><feColorMatrix values="0 0 0 0 0 0 0 0 0 0 0 0 0 0 0 0 0 0 0.04 0"></feColorMatrix><feBlend in2="effect3_dropShadow_2687_70046" result="effect4_dropShadow_2687_70046"></feBlend><feBlend in="SourceGraphic" in2="effect4_dropShadow_2687_70046" result="shape"></feBlend><feColorMatrix in="SourceAlpha" result="hardAlpha" values="0 0 0 0 0 0 0 0 0 0 0 0 0 0 0 0 0 0 127 0"></feColorMatrix><feOffset dx="-1.003" dy="-1.003"></feOffset><feGaussianBlur stdDeviation=".502"></feGaussianBlur><feComposite in2="hardAlpha" k2="-1" k3="1" operator="arithmetic"></feComposite><feColorMatrix values="0 0 0 0 0 0 0 0 0 0 0 0 0 0 0 0 0 0 0.3 0"></feColorMatrix><feBlend in2="shape" result="effect5_innerShadow_2687_70046"></feBlend><feColorMatrix in="SourceAlpha" result="hardAlpha" values="0 0 0 0 0 0 0 0 0 0 0 0 0 0 0 0 0 0 127 0"></feColorMatrix><feOffset dx="1.003" dy="1.003"></feOffset><feGaussianBlur stdDeviation=".502"></feGaussianBlur><feComposite in2="hardAlpha" k2="-1" k3="1" operator="arithmetic"></feComposite><feColorMatrix values="0 0 0 0 1 0 0 0 0 1 0 0 0 0 1 0 0 0 0.4 0"></feColorMatrix><feBlend in2="effect5_innerShadow_2687_70046" result="effect6_innerShadow_2687_70046"></feBlend></filter></defs></svg>