<svg xmlns="http://www.w3.org/2000/svg" fill="none" viewBox="0 0 304 192"><path fill="#DFEAFE" d="M172 24c24.301 0 44 19.7 44 44s-19.699 44-44 44-44-19.7-44-44 19.699-44 44-44Zm8.477 44.332a.509.509 0 0 0-.954 0l-.781 2.11a.507.507 0 0 1-.3.3l-2.11.781a.508.508 0 0 0 0 .954l2.11.78c.139.052.249.162.3.3l.781 2.111c.164.442.79.442.954 0l.781-2.11a.507.507 0 0 1 .3-.3l2.11-.781a.508.508 0 0 0 0-.954l-2.11-.78a.507.507 0 0 1-.3-.3l-.781-2.111Z"></path><path stroke="#7097FF" stroke-width=".6" d="M200.698 120.786c-.225-.608-1.044-.645-1.344-.113l-.052.113-1.545 4.176a1.346 1.346 0 0 1-.661.736l-.134.059-4.176 1.545c-.608.225-.645 1.044-.113 1.344l.113.052 4.176 1.545c.322.119.584.357.736.661l.059.134 1.545 4.176c.225.608 1.044.645 1.344.113l.052-.113 1.545-4.176c.119-.322.357-.584.661-.736l.134-.059 4.176-1.545c.608-.225.645-1.044.113-1.344l-.113-.052-4.176-1.545a1.346 1.346 0 0 1-.736-.661l-.059-.134-1.545-4.176Z"></path><path fill="#2E52B4" d="M205.265 34.512c.253-.683 1.217-.683 1.47 0l1.159 3.131a.781.781 0 0 0 .463.463l3.131 1.159c.683.252.683 1.218 0 1.47l-3.131 1.159a.781.781 0 0 0-.463.463l-1.159 3.131c-.253.683-1.217.683-1.47 0l-1.159-3.131a.781.781 0 0 0-.463-.463l-3.131-1.159c-.683-.252-.683-1.218 0-1.47l3.131-1.159a.781.781 0 0 0 .463-.463l1.159-3.131Z"></path><path stroke="#2E52B4" stroke-width=".831" d="M136 104v40"></path><path fill="#DFEAFE" d="m200 156-28-30-28 30h56Z"></path><path fill="#C1D5FF" d="m169 168-33-35-33 35h66Z"></path><g filter="url(#a)"><path fill="url(#b)" d="M184 104H88l48-53 48 53Z"></path><path fill="#fff" fill-opacity=".4" d="M155 103h-38l18.986-52L155 103Z"></path></g><defs><linearGradient id="b" x1="97" x2="137.327" y1="57" y2="96.133" gradientUnits="userSpaceOnUse"><stop stop-color="#A4BCFF"></stop><stop offset="1" stop-color="#648EFF"></stop></linearGradient><filter id="a" width="127.1" height="81.425" x="85.993" y="48.659" color-interpolation-filters="sRGB" filterUnits="userSpaceOnUse"><feFlood flood-opacity="0" result="BackgroundImageFix"></feFlood><feColorMatrix in="SourceAlpha" result="hardAlpha" values="0 0 0 0 0 0 0 0 0 0 0 0 0 0 0 0 0 0 127 0"></feColorMatrix><feOffset dx="1.338" dy="1.003"></feOffset><feGaussianBlur stdDeviation="1.672"></feGaussianBlur><feColorMatrix values="0 0 0 0 0 0 0 0 0 0 0 0 0 0 0 0 0 0 0.25 0"></feColorMatrix><feBlend in2="BackgroundImageFix" result="effect1_dropShadow_2513_3186"></feBlend><feColorMatrix in="SourceAlpha" result="hardAlpha" values="0 0 0 0 0 0 0 0 0 0 0 0 0 0 0 0 0 0 127 0"></feColorMatrix><feOffset dx="4.682" dy="4.013"></feOffset><feGaussianBlur stdDeviation="3.01"></feGaussianBlur><feColorMatrix values="0 0 0 0 0 0 0 0 0 0 0 0 0 0 0 0 0 0 0.21 0"></feColorMatrix><feBlend in2="effect1_dropShadow_2513_3186" result="effect2_dropShadow_2513_3186"></feBlend><feColorMatrix in="SourceAlpha" result="hardAlpha" values="0 0 0 0 0 0 0 0 0 0 0 0 0 0 0 0 0 0 127 0"></feColorMatrix><feOffset dx="10.701" dy="9.029"></feOffset><feGaussianBlur stdDeviation="4.18"></feGaussianBlur><feColorMatrix values="0 0 0 0 0 0 0 0 0 0 0 0 0 0 0 0 0 0 0.13 0"></feColorMatrix><feBlend in2="effect2_dropShadow_2513_3186" result="effect3_dropShadow_2513_3186"></feBlend><feColorMatrix in="SourceAlpha" result="hardAlpha" values="0 0 0 0 0 0 0 0 0 0 0 0 0 0 0 0 0 0 127 0"></feColorMatrix><feOffset dx="19.061" dy="16.052"></feOffset><feGaussianBlur stdDeviation="5.016"></feGaussianBlur><feColorMatrix values="0 0 0 0 0 0 0 0 0 0 0 0 0 0 0 0 0 0 0.04 0"></feColorMatrix><feBlend in2="effect3_dropShadow_2513_3186" result="effect4_dropShadow_2513_3186"></feBlend><feBlend in="SourceGraphic" in2="effect4_dropShadow_2513_3186" result="shape"></feBlend><feColorMatrix in="SourceAlpha" result="hardAlpha" values="0 0 0 0 0 0 0 0 0 0 0 0 0 0 0 0 0 0 127 0"></feColorMatrix><feOffset dx="-1.003" dy="-1.003"></feOffset><feGaussianBlur stdDeviation=".502"></feGaussianBlur><feComposite in2="hardAlpha" k2="-1" k3="1" operator="arithmetic"></feComposite><feColorMatrix values="0 0 0 0 0 0 0 0 0 0 0 0 0 0 0 0 0 0 0.3 0"></feColorMatrix><feBlend in2="shape" result="effect5_innerShadow_2513_3186"></feBlend><feColorMatrix in="SourceAlpha" result="hardAlpha" values="0 0 0 0 0 0 0 0 0 0 0 0 0 0 0 0 0 0 127 0"></feColorMatrix><feOffset dx="1.003" dy="1.003"></feOffset><feGaussianBlur stdDeviation=".502"></feGaussianBlur><feComposite in2="hardAlpha" k2="-1" k3="1" operator="arithmetic"></feComposite><feColorMatrix values="0 0 0 0 1 0 0 0 0 1 0 0 0 0 1 0 0 0 0.4 0"></feColorMatrix><feBlend in2="effect5_innerShadow_2513_3186" result="effect6_innerShadow_2513_3186"></feBlend></filter></defs></svg>