<svg xmlns="http://www.w3.org/2000/svg" fill="none" viewBox="0 0 304 192"><path fill="#DFEAFE" d="M152 24c30.928 0 56 25.072 56 56s-25.072 56-56 56-56-25.072-56-56 25.072-56 56-56Zm-31.021 64.683c-.336-.91-1.622-.91-1.958 0l-1.546 4.174a1.046 1.046 0 0 1-.618.618l-4.174 1.546c-.91.336-.91 1.622 0 1.959l4.174 1.545c.286.106.512.332.618.618l1.546 4.174c.336.91 1.622.91 1.958 0l1.546-4.174c.106-.286.332-.512.618-.618l4.174-1.546c.91-.336.91-1.622 0-1.959l-4.174-1.545a1.046 1.046 0 0 1-.618-.618l-1.546-4.174Z"></path><path stroke="#7097FF" stroke-width=".6" d="M62.453 40.616a.484.484 0 0 0-.873-.074l-.033.074-1.16 3.131c-.095.26-.287.471-.532.594l-.108.047-3.13 1.159a.484.484 0 0 0-.075.873l.074.033 3.131 1.16c.26.095.471.287.594.532l.047.108 1.159 3.13c.146.396.679.42.873.075l.033-.074 1.16-3.131c.095-.26.287-.471.531-.594l.109-.047 3.13-1.159a.484.484 0 0 0 .075-.873l-.074-.033-3.131-1.16a1.085 1.085 0 0 1-.594-.532l-.047-.108-1.159-3.13Z"></path><path fill="#2E52B4" d="M244.477 72.332a.509.509 0 0 0-.954 0l-.781 2.11a.507.507 0 0 1-.3.3l-2.11.781a.508.508 0 0 0 0 .954l2.11.78a.507.507 0 0 1 .3.3l.781 2.111c.164.443.79.443.954 0l.781-2.11a.507.507 0 0 1 .3-.3l2.11-.781a.508.508 0 0 0 0-.954l-2.11-.78a.507.507 0 0 1-.3-.3l-.781-2.111Z"></path><path fill="#C1D5FF" d="m208 168-56-72-56 72h112Z"></path><path stroke="#2E52B4" d="M152.5 116V75"></path><g filter="url(#a)"><path fill="url(#b)" d="M216.315 58.098 152 76V40l64.315 18.098Z"></path></g><g fill="#DFEAFE"><path d="M56 168c0-7.412 2.95-14.574 8.201-19.815A28.027 28.027 0 0 1 84 140a28.027 28.027 0 0 1 19.799 8.185C109.05 153.426 112 160.588 112 168l-28-.054L56 168Z"></path><path d="M104 168c0-4.49 2.156-8.867 5.071-12.042 2.916-3.174 6.87-4.958 10.994-4.958 4.123 0 8.077 1.784 10.993 4.958C133.973 159.133 136 163.51 136 168l-15.935-.071L104 168Z"></path></g><defs><linearGradient id="b" x1="144" x2="177" y1="26.5" y2="63" gradientUnits="userSpaceOnUse"><stop stop-color="#A4BCFF"></stop><stop offset="1" stop-color="#648EFF"></stop></linearGradient><filter id="a" width="95.415" height="64.425" x="149.994" y="37.659" color-interpolation-filters="sRGB" filterUnits="userSpaceOnUse"><feFlood flood-opacity="0" result="BackgroundImageFix"></feFlood><feColorMatrix in="SourceAlpha" result="hardAlpha" values="0 0 0 0 0 0 0 0 0 0 0 0 0 0 0 0 0 0 127 0"></feColorMatrix><feOffset dx="1.338" dy="1.003"></feOffset><feGaussianBlur stdDeviation="1.672"></feGaussianBlur><feColorMatrix values="0 0 0 0 0 0 0 0 0 0 0 0 0 0 0 0 0 0 0.25 0"></feColorMatrix><feBlend in2="BackgroundImageFix" result="effect1_dropShadow_2951_46190"></feBlend><feColorMatrix in="SourceAlpha" result="hardAlpha" values="0 0 0 0 0 0 0 0 0 0 0 0 0 0 0 0 0 0 127 0"></feColorMatrix><feOffset dx="4.682" dy="4.013"></feOffset><feGaussianBlur stdDeviation="3.01"></feGaussianBlur><feColorMatrix values="0 0 0 0 0 0 0 0 0 0 0 0 0 0 0 0 0 0 0.21 0"></feColorMatrix><feBlend in2="effect1_dropShadow_2951_46190" result="effect2_dropShadow_2951_46190"></feBlend><feColorMatrix in="SourceAlpha" result="hardAlpha" values="0 0 0 0 0 0 0 0 0 0 0 0 0 0 0 0 0 0 127 0"></feColorMatrix><feOffset dx="10.701" dy="9.029"></feOffset><feGaussianBlur stdDeviation="4.18"></feGaussianBlur><feColorMatrix values="0 0 0 0 0 0 0 0 0 0 0 0 0 0 0 0 0 0 0.13 0"></feColorMatrix><feBlend in2="effect2_dropShadow_2951_46190" result="effect3_dropShadow_2951_46190"></feBlend><feColorMatrix in="SourceAlpha" result="hardAlpha" values="0 0 0 0 0 0 0 0 0 0 0 0 0 0 0 0 0 0 127 0"></feColorMatrix><feOffset dx="19.061" dy="16.052"></feOffset><feGaussianBlur stdDeviation="5.016"></feGaussianBlur><feColorMatrix values="0 0 0 0 0 0 0 0 0 0 0 0 0 0 0 0 0 0 0.04 0"></feColorMatrix><feBlend in2="effect3_dropShadow_2951_46190" result="effect4_dropShadow_2951_46190"></feBlend><feBlend in="SourceGraphic" in2="effect4_dropShadow_2951_46190" result="shape"></feBlend><feColorMatrix in="SourceAlpha" result="hardAlpha" values="0 0 0 0 0 0 0 0 0 0 0 0 0 0 0 0 0 0 127 0"></feColorMatrix><feOffset dx="-1.003" dy="-1.003"></feOffset><feGaussianBlur stdDeviation=".502"></feGaussianBlur><feComposite in2="hardAlpha" k2="-1" k3="1" operator="arithmetic"></feComposite><feColorMatrix values="0 0 0 0 0 0 0 0 0 0 0 0 0 0 0 0 0 0 0.3 0"></feColorMatrix><feBlend in2="shape" result="effect5_innerShadow_2951_46190"></feBlend><feColorMatrix in="SourceAlpha" result="hardAlpha" values="0 0 0 0 0 0 0 0 0 0 0 0 0 0 0 0 0 0 127 0"></feColorMatrix><feOffset dx="1.003" dy="1.003"></feOffset><feGaussianBlur stdDeviation=".502"></feGaussianBlur><feComposite in2="hardAlpha" k2="-1" k3="1" operator="arithmetic"></feComposite><feColorMatrix values="0 0 0 0 1 0 0 0 0 1 0 0 0 0 1 0 0 0 0.4 0"></feColorMatrix><feBlend in2="effect5_innerShadow_2951_46190" result="effect6_innerShadow_2951_46190"></feBlend></filter></defs></svg>