<svg xmlns="http://www.w3.org/2000/svg" fill="none" viewBox="0 0 304 192"><path stroke="#DFEAFE" d="M193.559 115.064c12.281 0 23.385 1.03 31.406 2.69 4.015.831 7.231 1.814 9.431 2.891 1.101.538 1.922 1.088 2.461 1.632.537.543.76 1.046.76 1.506 0 .461-.223.964-.76 1.507-.539.545-1.36 1.094-2.461 1.633-2.2 1.076-5.416 2.059-9.431 2.889-8.021 1.66-19.125 2.69-31.406 2.69-12.281 0-23.385-1.03-31.406-2.69-4.015-.83-7.231-1.813-9.431-2.889-1.101-.539-1.922-1.088-2.461-1.633-.537-.543-.761-1.046-.761-1.507 0-.461.224-.963.761-1.506.539-.544 1.36-1.094 2.461-1.632 2.2-1.077 5.416-2.06 9.431-2.891 8.021-1.66 19.125-2.69 31.406-2.69Z"></path><path stroke="#DFEAFE" d="M194 108.5c17.09 0 32.545 1.845 43.712 4.816 5.587 1.487 10.073 3.249 13.149 5.185 3.102 1.952 4.639 3.992 4.639 5.999 0 2.007-1.537 4.047-4.639 5.999-3.076 1.936-7.562 3.698-13.149 5.185-11.167 2.971-26.622 4.816-43.712 4.816-17.09 0-32.545-1.845-43.712-4.816-5.587-1.487-10.073-3.249-13.149-5.185-3.102-1.952-4.639-3.992-4.639-5.999 0-2.007 1.537-4.047 4.639-5.999 3.076-1.936 7.562-3.698 13.149-5.185 11.167-2.971 26.622-4.816 43.712-4.816Z"></path><path stroke="#DFEAFE" d="M147.525 143.972C160.536 146.777 176.109 148 193.5 148c43.354 0 78.5-10.297 78.5-23s-35.146-23-78.5-23-78.5 10.297-78.5 23c0 2.5 1.414 4.791 2.914 6.291"></path><g filter="url(#a)"><path fill="url(#b)" d="M194 80c-19.882 0-36 16.351-36 36.522v6.261c.001 2.881 16.118 5.217 36 5.217s35.999-2.336 36-5.217v-6.261C230 96.352 213.882 80 194 80Z"></path></g><path stroke="#DFEAFE" d="M88 132.5c11.57 0 22.027 1.173 29.577 3.061 3.779.944 6.802 2.062 8.868 3.283 2.099 1.241 3.055 2.492 3.055 3.656 0 1.164-.956 2.415-3.055 3.656-2.066 1.221-5.089 2.339-8.868 3.283-7.55 1.888-18.008 3.061-29.577 3.061-11.57 0-22.027-1.173-29.577-3.061-3.78-.944-6.802-2.062-8.868-3.283-2.1-1.241-3.055-2.492-3.055-3.656 0-1.164.956-2.415 3.055-3.656 2.066-1.221 5.089-2.339 8.868-3.283C65.973 133.673 76.43 132.5 88 132.5Z"></path><path stroke="#DFEAFE" d="M90 129.5c9.413 0 18.298.581 26.147 1.611l1.556.212c8.984 1.27 16.492 3.135 21.741 5.375 2.626 1.121 4.66 2.325 6.029 3.574 1.369 1.251 2.027 2.501 2.027 3.728 0 1.793-1.415 3.637-4.318 5.412-2.875 1.758-7.069 3.359-12.295 4.71-10.445 2.701-24.9 4.378-40.887 4.378-15.987 0-30.442-1.677-40.887-4.378-5.226-1.351-9.42-2.952-12.295-4.71-2.903-1.775-4.318-3.619-4.318-5.412 0-1.793 1.415-3.637 4.318-5.412 2.875-1.758 7.07-3.359 12.295-4.71 10.445-2.701 24.9-4.378 40.887-4.378Z"></path><path fill="#C1D5FF" d="M88 112c-14.912 0-27 11.923-27 26.631v4.565C61 145.297 73.089 147 88 147s26.999-1.703 27-3.804v-4.565C115 123.923 102.912 112 88 112Z"></path><path fill="#DFEAFE" fill-rule="evenodd" d="M145.589 55.352A19.079 19.079 0 0 0 140 68.845H192.473a9.538 9.538 0 0 0-9.541-9.54 9.54 9.54 0 0 0-6.201 2.29 19.079 19.079 0 0 0-31.142-6.242Z" clip-rule="evenodd"></path><path fill="#2E52B4" d="M140.477 64.332a.509.509 0 0 0-.954 0l-.781 2.11a.507.507 0 0 1-.3.3l-2.11.781a.508.508 0 0 0 0 .954l2.11.78a.507.507 0 0 1 .3.3l.781 2.111c.164.443.79.443.954 0l.781-2.11a.507.507 0 0 1 .3-.3l2.11-.781a.508.508 0 0 0 0-.954l-2.11-.78a.507.507 0 0 1-.3-.3l-.781-2.111Z"></path><path stroke="#7097FF" stroke-width=".6" d="M92.477 48.332a.508.508 0 0 0-.954 0l-.78 2.11a.508.508 0 0 1-.3.3l-2.111.781a.508.508 0 0 0 0 .954l2.11.78c.14.052.249.162.3.3l.781 2.111c.164.443.79.443.954 0l.78-2.11a.508.508 0 0 1 .3-.3l2.111-.781a.508.508 0 0 0 0-.954l-2.11-.78a.508.508 0 0 1-.3-.3l-.781-2.111Z"></path><path fill="#2E52B4" d="M77.265 80.512c.252-.683 1.218-.683 1.47 0l1.159 3.131c.08.215.248.384.463.463l3.131 1.159c.683.252.683 1.218 0 1.47l-3.131 1.159a.784.784 0 0 0-.463.463l-1.159 3.131c-.252.683-1.218.683-1.47 0l-1.159-3.131a.784.784 0 0 0-.463-.463l-3.131-1.159c-.683-.252-.683-1.218 0-1.47l3.131-1.159a.784.784 0 0 0 .463-.463l1.159-3.131Z"></path><path fill="#DFEAFE" fill-rule="evenodd" d="M215.997 41.003A13.666 13.666 0 0 1 220 50.666h-37.582a6.832 6.832 0 0 1 6.833-6.833c1.635 0 3.209.586 4.442 1.64a13.667 13.667 0 0 1 22.304-4.47Z" clip-rule="evenodd"></path><g stroke="#2E52B4"><path d="m240 126 28 8M256 130.557V136M260 132v5M264 133v5M252 129.5v5.5M248 128v6M244 127.5v5.5M280 69l-26 61"></path></g><defs><linearGradient id="b" x1="158" x2="178.488" y1="80" y2="129.618" gradientUnits="userSpaceOnUse"><stop stop-color="#A4BCFF"></stop><stop offset="1" stop-color="#648EFF"></stop></linearGradient><filter id="a" width="103.1" height="76.425" x="155.994" y="77.659" color-interpolation-filters="sRGB" filterUnits="userSpaceOnUse"><feFlood flood-opacity="0" result="BackgroundImageFix"></feFlood><feColorMatrix in="SourceAlpha" result="hardAlpha" values="0 0 0 0 0 0 0 0 0 0 0 0 0 0 0 0 0 0 127 0"></feColorMatrix><feOffset dx="1.338" dy="1.003"></feOffset><feGaussianBlur stdDeviation="1.672"></feGaussianBlur><feColorMatrix values="0 0 0 0 0 0 0 0 0 0 0 0 0 0 0 0 0 0 0.25 0"></feColorMatrix><feBlend in2="BackgroundImageFix" result="effect1_dropShadow_2952_46756"></feBlend><feColorMatrix in="SourceAlpha" result="hardAlpha" values="0 0 0 0 0 0 0 0 0 0 0 0 0 0 0 0 0 0 127 0"></feColorMatrix><feOffset dx="4.682" dy="4.013"></feOffset><feGaussianBlur stdDeviation="3.01"></feGaussianBlur><feColorMatrix values="0 0 0 0 0 0 0 0 0 0 0 0 0 0 0 0 0 0 0.21 0"></feColorMatrix><feBlend in2="effect1_dropShadow_2952_46756" result="effect2_dropShadow_2952_46756"></feBlend><feColorMatrix in="SourceAlpha" result="hardAlpha" values="0 0 0 0 0 0 0 0 0 0 0 0 0 0 0 0 0 0 127 0"></feColorMatrix><feOffset dx="10.701" dy="9.029"></feOffset><feGaussianBlur stdDeviation="4.18"></feGaussianBlur><feColorMatrix values="0 0 0 0 0 0 0 0 0 0 0 0 0 0 0 0 0 0 0.13 0"></feColorMatrix><feBlend in2="effect2_dropShadow_2952_46756" result="effect3_dropShadow_2952_46756"></feBlend><feColorMatrix in="SourceAlpha" result="hardAlpha" values="0 0 0 0 0 0 0 0 0 0 0 0 0 0 0 0 0 0 127 0"></feColorMatrix><feOffset dx="19.061" dy="16.052"></feOffset><feGaussianBlur stdDeviation="5.016"></feGaussianBlur><feColorMatrix values="0 0 0 0 0 0 0 0 0 0 0 0 0 0 0 0 0 0 0.04 0"></feColorMatrix><feBlend in2="effect3_dropShadow_2952_46756" result="effect4_dropShadow_2952_46756"></feBlend><feBlend in="SourceGraphic" in2="effect4_dropShadow_2952_46756" result="shape"></feBlend><feColorMatrix in="SourceAlpha" result="hardAlpha" values="0 0 0 0 0 0 0 0 0 0 0 0 0 0 0 0 0 0 127 0"></feColorMatrix><feOffset dx="-1.003" dy="-1.003"></feOffset><feGaussianBlur stdDeviation=".502"></feGaussianBlur><feComposite in2="hardAlpha" k2="-1" k3="1" operator="arithmetic"></feComposite><feColorMatrix values="0 0 0 0 0 0 0 0 0 0 0 0 0 0 0 0 0 0 0.3 0"></feColorMatrix><feBlend in2="shape" result="effect5_innerShadow_2952_46756"></feBlend><feColorMatrix in="SourceAlpha" result="hardAlpha" values="0 0 0 0 0 0 0 0 0 0 0 0 0 0 0 0 0 0 127 0"></feColorMatrix><feOffset dx="1.003" dy="1.003"></feOffset><feGaussianBlur stdDeviation=".502"></feGaussianBlur><feComposite in2="hardAlpha" k2="-1" k3="1" operator="arithmetic"></feComposite><feColorMatrix values="0 0 0 0 1 0 0 0 0 1 0 0 0 0 1 0 0 0 0.4 0"></feColorMatrix><feBlend in2="effect5_innerShadow_2952_46756" result="effect6_innerShadow_2952_46756"></feBlend></filter></defs></svg>